mtllib model.mtl
o model.obj
v -2.846214 6.185749 1.235238
v 3.588692 -0.001656 -0.002243
v -2.846214 3.463291 5.195179
v -2.846214 5.195766 -3.467191
v -2.846214 1.235824 -6.189649
v -2.846214 -3.466605 -5.199663
v -2.846214 -6.189063 -1.239724
v -2.846214 -5.199078 3.462705
v -2.846214 -1.239138 6.185163
v -1.361237 2.225811 3.710201
v -0.866241 -0.496649 4.205194
v -0.866241 2.225811 3.710201
v -1.361237 -0.496649 4.205194
v -3.093712 8.413216 24.004894
v -2.351219 6.433246 12.372570
v -1.856232 6.433246 12.372570
v -3.588699 8.165718 24.004894
v 0.866234 1.483322 25.242376
v 0.123741 -0.991642 13.857547
v -0.371254 -1.239138 13.857547
v 1.361221 1.730816 25.242376
v -1.361237 4.948268 25.984863
v -0.866241 0.740833 -3.714686
v -0.866241 -1.734131 -3.219694
v -1.361237 0.740833 -3.714686
v -1.361237 -1.734131 -3.219694
v -1.856232 1.483322 -13.614536
v -2.351219 1.235824 -13.367040
v -3.093712 -1.239138 -24.999363
v -3.588699 -1.486634 -24.999363
v -0.371254 -6.189063 -12.129559
v 0.123741 -5.941567 -12.129559
v 0.866234 -7.921536 -23.761881
v 1.361221 -7.674040 -23.761881
v -1.361237 -4.951582 -25.741852
v -1.361237 3.710788 -1.734717
v -0.866241 4.205780 0.740246
v -0.866241 3.710788 -1.734717
v -1.361237 4.205780 0.740246
v -3.093712 24.005478 -7.922123
v -2.351219 12.373158 -5.942152
v -1.856232 12.373158 -6.189649
v -3.588699 24.005478 -7.674626
v 0.866234 25.242962 -1.239724
v 0.123741 13.858135 1.235238
v -0.371254 13.858135 1.482734
v 1.361221 25.242962 -1.487221
v -1.361237 25.985451 -4.704672
v -0.866241 -3.714100 -0.497236
v -0.866241 -3.219107 2.225224
v -1.361237 -3.714100 -0.497236
v -1.361237 -3.219107 2.225224
v -1.856232 -13.366453 -1.239724
v -2.351219 -13.366453 -0.992228
v -3.093712 -24.998777 1.482734
v -3.588699 -24.998777 1.730231
v -0.371254 -11.881475 6.432659
v 0.123741 -12.128973 6.432659
v 0.866234 -23.761295 8.165133
v 1.361221 -23.761295 7.917638
v -1.361237 -25.741266 5.195179
v -1.361237 3.958282 1.235238
v -0.866241 2.473304 3.462705
v -0.866241 3.958282 1.235238
v -1.361237 2.473304 3.462705
v -3.093712 22.767998 11.135089
v -2.351219 13.115646 4.452689
v -1.856232 13.363140 4.205194
v -3.588699 22.767998 11.382585
v 0.866234 19.055553 17.074999
v 0.123741 8.908207 10.640096
v -0.371254 8.908207 10.640096
v 1.361221 19.055553 16.827503
v -1.361237 21.778015 14.847532
v -0.866241 -2.229123 -2.972198
v -0.866241 -3.714100 -0.744732
v -1.361237 -2.229123 -2.972198
v -1.361237 -3.714100 -0.744732
v -1.856232 -8.664024 -10.397085
v -2.351219 -8.664024 -10.397085
v -3.093712 -18.563875 -16.584490
v -3.588699 -18.811371 -16.584490
v -0.371254 -12.871462 -3.962183
v 0.123741 -12.871462 -3.962183
v 0.866234 -22.523815 -10.892077
v 1.361221 -22.276318 -11.139574
v -1.361237 -21.781326 -14.357024
v -1.361237 1.235824 -3.714686
v -0.866241 3.463291 -2.229709
v -0.866241 1.235824 -3.714686
v -1.361237 3.463291 -2.229709
v -3.093712 11.135674 -22.524401
v -2.351219 4.453277 -12.872047
v -1.856232 4.205780 -12.872047
v -3.588699 11.383171 -22.276903
v 0.866234 17.075584 -18.564461
v 0.123741 10.640682 -8.664611
v -0.371254 10.640682 -8.664611
v 1.361221 16.828087 -18.811956
v -1.361237 14.848118 -21.534416
v -0.866241 -2.971611 2.472720
v -0.866241 -0.744145 3.957697
v -1.361237 -2.971611 2.472720
v -1.361237 -0.744145 3.957697
v -1.856232 -10.396498 8.907622
v -2.351219 -10.396498 8.907622
v -3.093712 -16.583904 18.807472
v -3.588699 -16.336409 19.054970
v -0.371254 -3.961596 13.115058
v 0.123741 -3.961596 13.115058
v 0.866234 -10.891491 22.767412
v 1.361221 -11.138987 22.519917
v -1.361237 -14.356438 22.024925
v -2.846214 -0.001656 -0.002243
vn -0.435709 0.882609 0.176522
vn 1.000000 -0.000000 0.000000
vn -0.432151 0.500229 0.750344
vn -0.432151 0.750344 -0.500229
vn -0.435709 0.176521 -0.882609
vn -0.432151 -0.500229 -0.750344
vn -0.435709 -0.882609 -0.176522
vn -0.432151 -0.750344 0.500229
vn -0.435709 -0.176522 0.882609
vn -0.290822 0.415974 -0.861619
vn 0.412027 -0.647932 -0.640639
vn 0.734749 0.358524 -0.575851
vn -0.738270 -0.537474 -0.407527
vn 0.260904 0.935382 0.238727
vn -0.812736 0.543521 -0.209868
vn 0.567221 0.784560 -0.250450
vn -0.963248 -0.010474 0.268409
vn -0.204089 -0.866130 0.456253
vn 0.888540 -0.458724 -0.008334
vn -0.443981 -0.894438 0.053484
vn 0.916150 0.090079 0.390584
vn -0.088630 0.116580 0.989219
vn 0.734722 0.545193 0.403669
vn 0.399820 -0.368881 0.839089
vn -0.400258 0.660748 0.634985
vn -0.735015 -0.349355 0.581124
vn 0.435482 0.898719 -0.051568
vn -0.890807 0.454219 0.012178
vn 0.162897 0.815850 -0.554845
vn -0.957575 -0.094926 -0.272102
vn -0.444535 -0.848899 0.285936
vn 0.884880 -0.428616 0.182415
vn -0.164270 -0.978366 -0.125757
vn 0.926779 -0.017295 -0.375209
vn 0.035889 -0.165019 -0.985637
vn -0.397497 -0.842081 -0.364548
vn 0.409725 -0.635235 0.654677
vn 0.733941 -0.584095 -0.346646
vn -0.734396 -0.404484 0.545027
vn 0.142015 0.231698 -0.962366
vn -0.884757 -0.184695 -0.427893
vn 0.445819 -0.291526 -0.846320
vn -0.959662 0.280870 0.012653
vn -0.196981 0.466583 0.862264
vn 0.888268 -0.009732 0.459223
vn -0.438878 0.053896 0.896929
vn 0.919414 0.380297 -0.100266
vn -0.086506 0.987685 -0.130367
vn 0.738184 0.406644 -0.538260
vn 0.348952 0.846693 0.401675
vn -0.412028 0.640639 -0.647931
vn -0.734750 0.575851 0.358523
vn 0.440741 -0.050666 -0.896203
vn -0.888550 0.009085 -0.458690
vn 0.177917 -0.550409 -0.815718
vn -0.957664 -0.272294 0.093466
vn -0.524288 0.254168 0.812724
vn 0.838575 0.191862 0.509884
vn -0.257303 -0.131611 0.957326
vn 0.926191 -0.376504 0.020350
vn 0.035889 -0.985637 0.165019
vn -0.430840 -0.345634 -0.833615
vn 0.292975 -0.954850 0.049258
vn 0.734849 -0.171283 -0.656246
vn -0.736896 -0.667280 0.108262
vn 0.209319 0.828786 -0.518941
vn -0.902593 0.152734 -0.402491
vn 0.414408 0.390494 -0.822059
vn -0.956239 0.232000 0.178279
vn -0.287373 -0.248236 0.925092
vn 0.805302 -0.407951 0.430191
vn -0.566369 -0.531076 0.630226
vn 0.918729 0.365765 0.148840
vn 0.143033 0.874033 0.464336
vn 0.735876 0.669650 -0.100275
vn 0.293230 0.320867 0.900589
vn -0.291392 0.955688 -0.041839
vn -0.738500 0.156914 0.655740
vn 0.565762 0.536483 -0.626178
vn -0.791098 0.417509 -0.447047
vn 0.381652 0.189838 -0.904601
vn -0.954885 -0.230788 -0.186901
vn -0.567900 -0.380894 0.729664
vn 0.832026 -0.221936 0.508406
vn -0.246159 -0.764490 0.595785
vn 0.928339 -0.254310 -0.271133
vn 0.191398 -0.754797 -0.627414
vn -0.406137 -0.849188 0.337538
vn 0.292975 0.049259 0.954850
vn 0.735171 -0.657032 0.166832
vn -0.736896 0.108262 0.667280
vn 0.111377 -0.507025 -0.854705
vn -0.894587 -0.417563 -0.159235
vn 0.453041 -0.801752 -0.389804
vn -0.960558 0.221564 -0.168039
vn -0.290557 0.923773 0.249441
vn 0.831675 0.394548 0.390703
vn -0.566092 0.627655 0.534405
vn 0.921327 0.169702 -0.349795
vn -0.114296 0.600149 -0.791680
vn 0.735876 -0.100275 -0.669650
vn 0.293230 0.900589 -0.320867
vn -0.291392 -0.041839 -0.955688
vn -0.738500 0.655741 -0.156914
vn 0.565762 -0.626178 -0.536483
vn -0.832247 -0.396571 -0.387422
vn 0.250814 -0.955046 -0.158050
vn -0.961169 -0.096547 0.258521
vn -0.565847 0.731371 0.380675
vn 0.832026 0.508406 0.221936
vn -0.239783 0.588747 0.771934
vn 0.928339 -0.271132 0.254311
vn 0.044132 -0.586595 0.808677
vn -1.000000 0.000000 0.000000
vt 0.765625 0.175781
vt 0.875000 0.128906
vt 0.828125 0.242188
vt 0.921875 0.242188
vt 0.988281 0.175781
vt 0.984375 0.082031
vt 0.921875 0.011719
vt 0.828125 0.015625
vt 0.765625 0.082031
vt 0.738281 0.164063
vt 0.738281 0.085938
vt 0.738281 0.164063
vt 0.738281 0.085938
vt 0.437500 0.242188
vt 0.437500 0.242188
vt 0.050781 0.242188
vt 0.050781 0.242188
vt 0.437500 0.007813
vt 0.437500 0.007813
vt 0.050781 0.007813
vt 0.050781 0.007813
vt 0.007813 0.125000
vt 0.738281 0.164063
vt 0.738281 0.085938
vt 0.738281 0.164063
vt 0.738281 0.085938
vt 0.050781 0.242188
vt 0.437500 0.242188
vt 0.437500 0.242188
vt 0.050781 0.242188
vt 0.050781 0.007813
vt 0.437500 0.007813
vt 0.437500 0.007813
vt 0.050781 0.007813
vt 0.007813 0.125000
vt 0.738281 0.164063
vt 0.738281 0.085938
vt 0.738281 0.164063
vt 0.738281 0.085938
vt 0.437500 0.242188
vt 0.437500 0.242188
vt 0.050781 0.242188
vt 0.050781 0.242188
vt 0.437500 0.007813
vt 0.437500 0.007813
vt 0.050781 0.007813
vt 0.050781 0.007813
vt 0.007813 0.125000
vt 0.738281 0.164063
vt 0.738281 0.085938
vt 0.738281 0.164063
vt 0.738281 0.085938
vt 0.050781 0.242188
vt 0.437500 0.242188
vt 0.437500 0.242188
vt 0.050781 0.242188
vt 0.050781 0.007813
vt 0.437500 0.007813
vt 0.437500 0.007813
vt 0.050781 0.007813
vt 0.007813 0.125000
vt 0.738281 0.164063
vt 0.738281 0.085938
vt 0.738281 0.164063
vt 0.738281 0.085938
vt 0.437500 0.242188
vt 0.437500 0.242188
vt 0.050781 0.242188
vt 0.050781 0.242188
vt 0.437500 0.007813
vt 0.437500 0.007813
vt 0.050781 0.007813
vt 0.050781 0.007813
vt 0.007813 0.125000
vt 0.738281 0.164063
vt 0.738281 0.085938
vt 0.738281 0.164063
vt 0.738281 0.085938
vt 0.050781 0.242188
vt 0.437500 0.242188
vt 0.437500 0.242188
vt 0.050781 0.242188
vt 0.050781 0.007813
vt 0.437500 0.007813
vt 0.437500 0.007813
vt 0.050781 0.007813
vt 0.007813 0.125000
vt 0.738281 0.164063
vt 0.738281 0.085938
vt 0.738281 0.164063
vt 0.738281 0.085938
vt 0.437500 0.242188
vt 0.437500 0.242188
vt 0.050781 0.242188
vt 0.050781 0.242188
vt 0.437500 0.007813
vt 0.437500 0.007813
vt 0.050781 0.007813
vt 0.050781 0.007813
vt 0.007813 0.125000
vt 0.738281 0.164063
vt 0.738281 0.085938
vt 0.738281 0.164063
vt 0.738281 0.085938
vt 0.050781 0.242188
vt 0.437500 0.242188
vt 0.437500 0.242188
vt 0.050781 0.242188
vt 0.050781 0.007813
vt 0.437500 0.007813
vt 0.437500 0.007813
vt 0.050781 0.007813
vt 0.007813 0.125000
vt 0.875000 0.128906
g base
usemtl Default
f 3/1/3 2/2/2 1/3/1 
f 1/3/1 2/2/2 4/4/4 
f 4/4/4 2/2/2 5/5/5 
f 5/5/5 2/2/2 6/6/6 
f 6/6/6 2/2/2 7/7/7 
f 7/7/7 2/2/2 8/8/8 
f 8/8/8 2/2/2 9/9/9 
f 9/9/9 2/2/2 3/1/3 
f 12/10/12 11/11/11 10/12/10 
f 11/11/11 13/13/13 10/12/10 
f 16/14/16 15/15/15 14/16/14 
f 15/15/15 17/17/17 14/16/14 
f 20/18/20 19/19/19 18/20/18 
f 19/19/19 21/21/21 18/20/18 
f 10/12/10 15/15/15 16/14/16 
f 10/12/10 16/14/16 12/10/12 
f 11/11/11 19/19/19 20/18/20 
f 11/11/11 20/18/20 13/13/13 
f 22/22/22 14/16/14 17/17/17 
f 22/22/22 18/20/18 21/21/21 
f 25/23/25 24/24/24 23/25/23 
f 25/23/25 26/26/26 24/24/24 
f 29/27/29 28/28/28 27/29/27 
f 29/27/29 30/30/30 28/28/28 
f 33/31/33 32/32/32 31/33/31 
f 33/31/33 34/34/34 32/32/32 
f 27/29/27 28/28/28 25/23/25 
f 23/25/23 27/29/27 25/23/25 
f 31/33/31 32/32/32 24/24/24 
f 26/26/26 31/33/31 24/24/24 
f 30/30/30 29/27/29 35/35/35 
f 34/34/34 33/31/33 35/35/35 
f 38/36/38 37/37/37 36/38/36 
f 37/37/37 39/39/39 36/38/36 
f 42/40/42 41/41/41 40/42/40 
f 41/41/41 43/43/43 40/42/40 
f 46/44/46 45/45/45 44/46/44 
f 45/45/45 47/47/47 44/46/44 
f 36/38/36 41/41/41 42/40/42 
f 36/38/36 42/40/42 38/36/38 
f 37/37/37 45/45/45 46/44/46 
f 37/37/37 46/44/46 39/39/39 
f 48/48/48 40/42/40 43/43/43 
f 48/48/48 44/46/44 47/47/47 
f 51/49/51 50/50/50 49/51/49 
f 51/49/51 52/52/52 50/50/50 
f 55/53/55 54/54/54 53/55/53 
f 55/53/55 56/56/56 54/54/54 
f 59/57/59 58/58/58 57/59/57 
f 59/57/59 60/60/60 58/58/58 
f 53/55/53 54/54/54 51/49/51 
f 49/51/49 53/55/53 51/49/51 
f 57/59/57 58/58/58 50/50/50 
f 52/52/52 57/59/57 50/50/50 
f 56/56/56 55/53/55 61/61/61 
f 60/60/60 59/57/59 61/61/61 
f 64/62/64 63/63/63 62/64/62 
f 63/63/63 65/65/65 62/64/62 
f 68/66/68 67/67/67 66/68/66 
f 67/67/67 69/69/69 66/68/66 
f 72/70/72 71/71/71 70/72/70 
f 71/71/71 73/73/73 70/72/70 
f 62/64/62 67/67/67 68/66/68 
f 62/64/62 68/66/68 64/62/64 
f 63/63/63 71/71/71 72/70/72 
f 63/63/63 72/70/72 65/65/65 
f 74/74/74 66/68/66 69/69/69 
f 74/74/74 70/72/70 73/73/73 
f 77/75/77 76/76/76 75/77/75 
f 77/75/77 78/78/78 76/76/76 
f 81/79/81 80/80/80 79/81/79 
f 81/79/81 82/82/82 80/80/80 
f 85/83/85 84/84/84 83/85/83 
f 85/83/85 86/86/86 84/84/84 
f 79/81/79 80/80/80 77/75/77 
f 75/77/75 79/81/79 77/75/77 
f 83/85/83 84/84/84 76/76/76 
f 78/78/78 83/85/83 76/76/76 
f 82/82/82 81/79/81 87/87/87 
f 86/86/86 85/83/85 87/87/87 
f 90/88/90 89/89/89 88/90/88 
f 89/89/89 91/91/91 88/90/88 
f 94/92/94 93/93/93 92/94/92 
f 93/93/93 95/95/95 92/94/92 
f 98/96/98 97/97/97 96/98/96 
f 97/97/97 99/99/99 96/98/96 
f 88/90/88 93/93/93 94/92/94 
f 88/90/88 94/92/94 90/88/90 
f 89/89/89 97/97/97 98/96/98 
f 89/89/89 98/96/98 91/91/91 
f 100/100/100 92/94/92 95/95/95 
f 100/100/100 96/98/96 99/99/99 
f 103/101/103 102/102/102 101/103/101 
f 103/101/103 104/104/104 102/102/102 
f 107/105/107 106/106/106 105/107/105 
f 107/105/107 108/108/108 106/106/106 
f 111/109/111 110/110/110 109/111/109 
f 111/109/111 112/112/112 110/110/110 
f 105/107/105 106/106/106 103/101/103 
f 101/103/101 105/107/105 103/101/103 
f 109/111/109 110/110/110 102/102/102 
f 104/104/104 109/111/109 102/102/102 
f 108/108/108 107/105/107 113/113/113 
f 112/112/112 111/109/111 113/113/113 
f 14/16/14 21/21/21 16/14/16 
f 21/21/21 19/19/19 16/14/16 
f 12/10/12 16/14/16 19/19/19 
f 12/10/12 19/19/19 11/11/11 
f 22/22/22 21/21/21 14/16/14 
f 27/29/27 34/34/34 29/27/29 
f 27/29/27 32/32/32 34/34/34 
f 32/32/32 27/29/27 23/25/23 
f 24/24/24 32/32/32 23/25/23 
f 29/27/29 34/34/34 35/35/35 
f 40/42/40 47/47/47 42/40/42 
f 47/47/47 45/45/45 42/40/42 
f 38/36/38 42/40/42 45/45/45 
f 38/36/38 45/45/45 37/37/37 
f 48/48/48 47/47/47 40/42/40 
f 53/55/53 60/60/60 55/53/55 
f 53/55/53 58/58/58 60/60/60 
f 58/58/58 53/55/53 49/51/49 
f 50/50/50 58/58/58 49/51/49 
f 55/53/55 60/60/60 61/61/61 
f 66/68/66 73/73/73 68/66/68 
f 73/73/73 71/71/71 68/66/68 
f 64/62/64 68/66/68 71/71/71 
f 64/62/64 71/71/71 63/63/63 
f 74/74/74 73/73/73 66/68/66 
f 79/81/79 86/86/86 81/79/81 
f 79/81/79 84/84/84 86/86/86 
f 84/84/84 79/81/79 75/77/75 
f 76/76/76 84/84/84 75/77/75 
f 81/79/81 86/86/86 87/87/87 
f 92/94/92 99/99/99 94/92/94 
f 99/99/99 97/97/97 94/92/94 
f 90/88/90 94/92/94 97/97/97 
f 90/88/90 97/97/97 89/89/89 
f 100/100/100 99/99/99 92/94/92 
f 105/107/105 112/112/112 107/105/107 
f 105/107/105 110/110/110 112/112/112 
f 110/110/110 105/107/105 101/103/101 
f 102/102/102 110/110/110 101/103/101 
f 107/105/107 112/112/112 113/113/113 
f 15/15/15 20/18/20 17/17/17 
f 20/18/20 18/20/18 17/17/17 
f 13/13/13 20/18/20 15/15/15 
f 13/13/13 15/15/15 10/12/10 
f 22/22/22 17/17/17 18/20/18 
f 30/30/30 31/33/31 28/28/28 
f 30/30/30 33/31/33 31/33/31 
f 28/28/28 31/33/31 26/26/26 
f 25/23/25 28/28/28 26/26/26 
f 33/31/33 30/30/30 35/35/35 
f 41/41/41 46/44/46 43/43/43 
f 46/44/46 44/46/44 43/43/43 
f 39/39/39 46/44/46 41/41/41 
f 39/39/39 41/41/41 36/38/36 
f 48/48/48 43/43/43 44/46/44 
f 56/56/56 57/59/57 54/54/54 
f 56/56/56 59/57/59 57/59/57 
f 54/54/54 57/59/57 52/52/52 
f 51/49/51 54/54/54 52/52/52 
f 59/57/59 56/56/56 61/61/61 
f 67/67/67 72/70/72 69/69/69 
f 72/70/72 70/72/70 69/69/69 
f 65/65/65 72/70/72 67/67/67 
f 65/65/65 67/67/67 62/64/62 
f 74/74/74 69/69/69 70/72/70 
f 82/82/82 83/85/83 80/80/80 
f 82/82/82 85/83/85 83/85/83 
f 80/80/80 83/85/83 78/78/78 
f 77/75/77 80/80/80 78/78/78 
f 85/83/85 82/82/82 87/87/87 
f 93/93/93 98/96/98 95/95/95 
f 98/96/98 96/98/96 95/95/95 
f 91/91/91 98/96/98 93/93/93 
f 91/91/91 93/93/93 88/90/88 
f 100/100/100 95/95/95 96/98/96 
f 108/108/108 109/111/109 106/106/106 
f 108/108/108 111/109/111 109/111/109 
f 106/106/106 109/111/109 104/104/104 
f 103/101/103 106/106/106 104/104/104 
f 111/109/111 108/108/108 113/113/113 
f 3/1/3 1/3/1 114/114/114 
f 1/3/1 4/4/4 114/114/114 
f 4/4/4 5/5/5 114/114/114 
f 5/5/5 6/6/6 114/114/114 
f 6/6/6 7/7/7 114/114/114 
f 7/7/7 8/8/8 114/114/114 
f 8/8/8 9/9/9 114/114/114 
f 9/9/9 3/1/3 114/114/114 
