# rusted dreams obj exporter
mtllib model.mtl
g base
usemtl mat_base
v 0.157471 -0.135491 7.58401
v 0.157471 -0.135491 -7.58401
v 0.157471 -0.135491 7.03852
v 0.157471 -0.135491 -7.03852
v 0.157471 -0.135491 0.272748
v 0.157471 -0.135491 -0.272748
v 0.157471 0.203786 7.58401
v 0.157471 0.203786 -7.58401
v 0.157471 0.203786 7.03852
v 0.157471 0.203786 -7.03852
v 0.157471 0.203786 0.272748
v 0.157471 0.203786 -0.272748
v -0.157471 -0.135491 7.58401
v -0.157471 -0.135491 -7.58401
v -0.157471 -0.135491 7.03852
v -0.157471 -0.135491 -7.03852
v -0.157471 -0.135491 0.272748
v -0.157471 -0.135491 -0.272748
v -0.157471 0.203786 7.58401
v -0.157471 0.203786 -7.58401
v -0.157471 0.203786 7.03852
v -0.157471 0.203786 -7.03852
v -0.157471 0.203786 0.272748
v -0.157471 0.203786 -0.272748
v 0.190461 4.28322 7.24155
v 0.190461 4.28322 -7.24155
v 0.190461 0.281587 0
v 0.190461 0.281587 7.31126
v 0.190461 0.281587 -7.31126
v 0.190461 4.48843 7.04351
v 0.190461 4.48843 -7.04351
v 0.190461 2.15355 0
v 0.190461 2.15355 7.31126
v 0.190461 2.15355 -7.31126
v 0.190461 4.56553 0
v 0.190461 4.56553 6.76345
v 0.190461 4.56553 -6.76345
v 0.190461 4.02551 7.31126
v 0.190461 4.02551 -7.31126
v -0.190461 4.28322 7.24155
v -0.190461 4.28322 -7.24155
v -0.190461 0.281587 0
v -0.190461 0.281587 7.31126
v -0.190461 0.281587 -7.31126
v -0.190461 4.48843 7.04351
v -0.190461 4.48843 -7.04351
v -0.190461 2.15355 0
v -0.190461 2.15355 7.31126
v -0.190461 2.15355 -7.31126
v -0.190461 4.56553 0
v -0.190461 4.56553 6.76345
v -0.190461 4.56553 -6.76345
v -0.190461 4.02551 7.31126
v -0.190461 4.02551 -7.31126
v 0.314943 -0.135491 0
v 0.314943 -0.135491 7.31126
v 0.314943 -0.135491 -7.31126
v 0.314943 0.203786 0
v 0.314943 0.203786 7.31126
v 0.314943 0.203786 -7.31126
v -0.314943 -0.135491 0
v -0.314943 -0.135491 7.31126
v -0.314943 -0.135491 -7.31126
v -0.314943 0.203786 0
v -0.314943 0.203786 7.31126
v -0.314943 0.203786 -7.31126
v 0.09523 4.73047 0
v 0.09523 4.73047 6.76345
v 0.09523 4.73047 -6.76345
v 0.09523 2.31849 -0.165063
v 0.09523 2.31849 7.1462
v 0.09523 2.31849 -7.1462
v 0.09523 2.31849 0.164703
v 0.09523 0.281587 0.164944
v 0.09523 0.281587 -0.164944
v 0.09523 0.281587 7.47621
v 0.09523 0.281587 -7.47621
v 0.09523 0.281587 7.14632
v 0.09523 0.281587 -7.14632
v 0.09523 4.626 7.13451
v 0.09523 4.626 -7.13451
v 0.09523 4.35086 6.95251
v 0.09523 4.35086 -6.95251
v 0.09523 4.21246 7.09255
v 0.09523 4.21246 -7.09255
v 0.09523 4.40058 6.76345
v 0.09523 4.40058 -6.76345
v 0.09523 4.40058 0.165025
v 0.09523 4.40058 -0.165343
v 0.09523 4.35397 7.39054
v 0.09523 4.35397 -7.39054
v 0.09523 2.15355 7.47621
v 0.09523 2.15355 -7.47621
v 0.09523 1.98861 -0.165063
v 0.09523 1.98861 7.1462
v 0.09523 1.98861 -7.1462
v 0.09523 1.98861 0.164703
v 0.09523 4.02551 7.47621
v 0.09523 4.02551 -7.47621
v 0.09523 4.02551 7.14632
v 0.09523 4.02551 -7.14632
v -0.09523 4.73047 0
v -0.09523 4.73047 6.76345
v -0.09523 4.73047 -6.76345
v -0.09523 2.31849 -0.165063
v -0.09523 2.31849 7.1462
v -0.09523 2.31849 -7.1462
v -0.09523 2.31849 0.164703
v -0.09523 0.281587 0.164944
v -0.09523 0.281587 -0.164944
v -0.09523 0.281587 7.47621
v -0.09523 0.281587 -7.47621
v -0.09523 0.281587 7.14632
v -0.09523 0.281587 -7.14632
v -0.09523 4.626 7.13451
v -0.09523 4.626 -7.13451
v -0.09523 4.35086 6.95251
v -0.09523 4.35086 -6.95251
v -0.09523 4.21246 7.09255
v -0.09523 4.21246 -7.09255
v -0.09523 4.40058 6.76345
v -0.09523 4.40058 -6.76345
v -0.09523 4.40058 0.165025
v -0.09523 4.40058 -0.165343
v -0.09523 4.35397 7.39054
v -0.09523 4.35397 -7.39054
v -0.09523 2.15355 7.47621
v -0.09523 2.15355 -7.47621
v -0.09523 1.98861 -0.165063
v -0.09523 1.98861 7.1462
v -0.09523 1.98861 -7.1462
v -0.09523 1.98861 0.164703
v -0.09523 4.02551 7.47621
v -0.09523 4.02551 -7.47621
v -0.09523 4.02551 7.14632
v -0.09523 4.02551 -7.14632
vt 0.067585 0.666538
vt 0.37352 0.033217
vt 0.078249 0.973058
vt 0.04177 0.988627
vt 0.226986 0.650554
vt 0.194954 0.671724
vt 0.076685 0.802921
vt 0.202324 0.820735
vt 0.854462 0.00495
vt 0.854462 0.614483
vt 0.503693 0.980582
vt 0.139763 0.648316
vt 0.891419 0.791905
vt 0.384827 0.335531
vt 0.13501 0.601523
vt 0.169163 0.649819
vt 0.628297 0.623758
vt 0.707658 0.641738
vt 0.104067 0.624712
vt 0.328118 0.172693
vt 0.451966 0.404355
vt 0.271012 0.029225
vt 0.312226 0.357398
vt 0.591478 0.624565
vt 0.553331 0.625334
vt 0.107794 0.99113
vt 0.044695 0.801718
vt 0.295617 0.173714
vt 0.555086 0.644708
vt 0.578432 0.018712
vt 0.578432 0.600722
vt 0.176621 0.976482
vt 0.416772 0.404099
vt 0.88814 0.018711
vt 0.88814 0.600752
vt 0.439584 0.005803
vt 0.494508 0.194096
vt 0.631228 0.642864
vt 0.59537 0.651941
vt 0.106459 0.817187
vt 0.668414 0.821501
vt 0.74158 0.806595
vt 0.823947 0.979231
vt 0.352243 0.336828
vt 0.346315 0.403551
vt 0.448732 0.354791
vt 0.631824 0.806532
vt 0.824039 0.805649
vt 0.992374 0.791905
vt 0.517139 0.355089
vt 0.174405 0.993843
vt 0.018283 0.962834
vt 0.2922 0.979044
vt 0.490694 0.167527
vt 0.163434 0.670538
vt 0.61211 0.018712
vt 0.61211 0.600722
vt 0.277071 0.599603
vt 0.3911 0.356631
vt 0.432726 0.99447
vt 0.460085 0.181839
vt 0.307047 0.02744
vt 0.487177 0.404589
vt 0.441126 0.023231
vt 0.748463 0.642318
vt 0.241521 0.600073
vt 0.790196 0.992977
vt 0.231908 0.626318
vt 0.467974 0.994727
vt 0.37192 0.007593
vt 0.891362 0.992989
vt 0.857625 0.979235
vt 0.265574 0.650441
vt 0.921819 0.018711
vt 0.921819 0.600752
vt 0.438502 0.031187
vt 0.205026 0.00495
vt 0.311053 0.40329
vt 0.040418 0.827897
vt 0.449725 0.378855
vt 0.007569 0.987224
vt 0.327449 0.979301
vt 0.209478 0.969875
vt 0.236467 0.808866
vt 0.857718 0.805653
vt 0.060594 0.624517
vt 0.704993 0.806569
vt 0.028187 0.02193
vt 0.645789 0.004951
vt 0.645789 0.614483
vt 0.595252 0.806514
vt 0.143255 0.975506
vt 0.226671 0.672701
vt 0.063733 0.021443
vt 0.138418 0.818372
vt 0.955497 0.00495
vt 0.955497 0.614483
vt 0.42757 0.182872
vt 0.405605 0.006753
vt 0.778068 0.821564
vt 0.133932 0.005923
vt 0.17037 0.819555
vt 0.390354 0.37964
vt 0.374256 0.024912
vt 0.0453 0.971589
vt 0.276226 0.03638
vt 0.474453 0.00495
vt 0.790352 0.791893
vt 0.420994 0.37882
vt 0.753426 0.00495
vt 0.753426 0.614483
vt 0.925057 0.979239
vt 0.925057 0.805658
vt 0.480717 0.379111
vt 0.705361 0.651821
vt 0.519921 0.379019
vt 0.792031 0.644805
vt 0.679467 0.018712
vt 0.679467 0.600722
vt 0.062285 0.647033
vt 0.51394 0.331542
vt 0.362538 0.184947
vt 0.113887 0.966411
vt 0.200621 0.626696
vt 0.594049 0.643626
vt 0.212191 0.977259
vt 0.098386 0.006409
vt 0.209433 0.995049
vt 0.196917 0.650693
vt 0.2321 0.834963
vt 0.010775 0.969854
vt 0.075063 0.989854
vt 0.050079 0.964031
vt 0.406026 0.032194
vt 0.272237 0.625967
vt 0.787104 0.018711
vt 0.787104 0.600752
vt 0.341016 0.034262
vt 0.664851 0.622134
vt 0.417005 0.334276
vt 0.55865 0.821432
vt 0.331945 0.199274
vt 0.170512 0.601018
vt 0.381559 0.403824
vt 0.319471 0.337885
vt 0.958736 0.979239
vt 0.958736 0.805658
vt 0.481344 0.33242
vt 0.631908 0.65187
vt 0.063909 0.602518
vt 0.258787 0.673699
vt 0.713146 0.018712
vt 0.713146 0.600722
vt 0.35462 0.358363
vt 0.072351 0.829062
vt 0.177703 0.968726
vt 0.558972 0.651971
vt 0.4709 0.030182
vt 0.751874 0.620174
vt 0.420714 0.355167
vt 0.340964 0.026057
vt 0.171882 0.626243
vt 0.820783 0.018711
vt 0.820783 0.600752
vt 0.081968 0.965227
vt 0.308562 0.035327
vt 0.303603 0.009778
vt 0.241466 0.019015
vt 0.47898 0.354997
vt 0.778715 0.652031
vt 0.110687 0.974442
vt 0.338088 0.008696
vt 0.141376 0.625519
vt 0.267951 0.011118
vt 0.3525 0.380844
vt 0.099468 0.602029
vt 0.169479 0.005437
vt 0.395057 0.183908
vt 0.299392 0.20033
vt 0.746825 0.00495
vt 0.746825 0.614483
vt 0.308349 0.380497
vt 0.131767 0.669146
vt 0.099779 0.667755
vt 0.544753 0.004951
vt 0.544753 0.614483
vt 0.103958 0.646745
vt 0.362228 0.993957
vt 0.145809 0.967575
vt 0.742141 0.651903
vt 0.707 0.620453
vt 0.992431 0.992989
vt 0.407478 0.023999
vt 0.140663 0.992456
vt 0.476402 0.022661
vt 0.397476 0.994213
vt 0.799316 0.622134
vt 0.52243 0.404826
vt 0.668594 0.651815
vt 0.206005 0.600537
vt 0.449066 0.333253
vt 0.668411 0.642154
vn 0.5 0 0.866025
vn 0.5 0 -0.866025
vn -0.5 0 0.866025
vn -0.5 0 -0.866025
vn 1 0 0
vn 1 0 0.000145
vn 1 0 8e-06
vn 1 0 -8e-06
vn 1 -4.9e-05 -0.000882
vn 1 4.1e-05 0.000503
vn 1 1.3e-05 0
vn 1 -1e-05 -7.4e-05
vn 1 -3.9e-05 0.000444
vn 1 -0.000427 0.000787
vn -1 0 0
vn -1 0 0.00016
vn -1 0 8e-06
vn -1 0 -8e-06
vn -1 -4.5e-05 0.000506
vn -1 1.3e-05 0
vn -1 1e-05 -6.6e-05
vn -1 -2e-05 0.000488
vn 0.430504 0.508568 -0.745671
vn 0.430504 0.508569 0.74567
vn -0.430504 0.508568 0.745671
vn -0.430504 0.508568 -0.745671
vn 0.503205 -0.74803 -0.432708
vn 0.430344 0.508576 0.745758
vn 0.499741 -0.858739 0.113254
vn 0.430512 0.508568 -0.745666
vn -0.430512 0.508573 -0.745663
vn -0.499787 0.112003 0.858876
vn -0.999986 -0.004076 0.003472
vn -0.49994 -0.85885 0.111516
vn 0.500109 -0.000116 -0.865963
vn -0.999987 -0.002216 -0.00459
vn -0.86101 0.508588 0.000265
vn -0.499696 -0.000134 0.866201
vn -0.430589 0.508574 -0.745618
vn 0.501376 0.110324 -0.858167
vn 0.507617 0.417153 -0.753863
vn 0.430513 0.50857 0.745665
vn 0.49991 0.857858 -0.119036
vn 0.499994 0 0.866029
vn 0.499994 0 -0.866029
vn 0.499994 -0.866029 0
vn -0.499994 0 0.866029
vn -0.499994 0 -0.866029
vn -0.499994 -0.866029 0
vn -0.497896 -0.859979 -0.111961
vn 0.500263 -0.119054 -0.85765
vn 0.503803 -0.436327 -0.745521
vn -0.499979 -0.121457 -0.857479
vn -0.50243 -0.120848 0.856131
vn 0.502034 -0.11864 0.856672
vn 0.504003 0.418359 0.755617
vn 0.499995 0.866028 0
vn 0.499995 0.866029 0
vn 0.499995 4e-05 0.866028
vn -0.499995 0.866028 0
vn -0.499995 0.866029 0
vn -0.499995 6.1e-05 0.866028
vn 0.500006 0 0.866022
vn 0.500006 0 -0.866022
vn 0.500006 -0.866022 0
vn -0.500006 0 0.866022
vn -0.500006 0 -0.866022
vn -0.500006 -0.866022 0
vn -0.498645 0.858673 0.118465
vn 0.499942 0.110636 0.858963
vn -0.430362 0.508564 0.745755
vn 0.504523 0.738277 0.447665
vn 0.499698 0.000122 0.8662
vn -0.509345 -0.439388 0.739936
vn 0.500144 -6.1e-05 0.865942
vn -0.500144 6.1e-05 -0.865942
vn -0.500144 -6.1e-05 -0.865942
vn 0.430576 0.508574 -0.745625
vn 0.430515 0.508569 -0.745664
vn -0.861031 0.508553 -7.3e-05
vn 0.507424 -0.746141 0.431038
vn 0.430508 0.508575 0.745664
vn 0.430508 0.508575 -0.745664
vn -0.430508 0.508571 0.745666
vn -0.430508 0.508575 0.745664
vn -0.430508 0.508575 -0.745664
vn -0.503823 0.739992 0.445618
vn -0.501611 0.111589 -0.857866
vn 0.500131 4e-05 -0.86595
vn 0.500131 -4e-05 -0.86595
vn -0.500131 -4e-05 0.86595
vn -0.430577 0.508573 0.745625
vn 0.861032 0.508551 7.7e-05
vn 0.861017 0.508576 0
vn -0.861017 0.508576 0
vn -0.861017 0.508576 -7e-06
vn -0.861017 0.508576 9e-06
vn -0.500147 -6e-05 -0.86594
vn -0.50268 -0.441777 -0.743065
vn 0.999995 -0.002358 -0.00203
vn 0.999995 -0.003058 0.001071
vn 0.861018 0.508574 -6e-06
vn -0.430509 0.508572 -0.745665
vn -0.501796 -0.751263 -0.428725
vn 0.508495 -0.434753 0.743252
vn 0.999996 -0.001182 -0.002393
vn 0.999996 -0.002121 0.001779
vn 0.861019 0.508573 7e-06
vn -0.508114 0.419714 -0.752104
vn 0.430586 0.508568 0.745624
vn -0.430586 0.508567 -0.745624
vn 0.500134 -4e-05 -0.865948
vn -0.500134 -7.8e-05 -0.865948
vn -0.999997 -0.002144 -0.000914
vn -0.999997 -0.002403 0.000242
vn 0.43051 0.508569 0.745667
vn -0.999982 -0.005637 0.002055
vn -0.508054 0.738083 -0.443975
vn -0.507978 -0.748428 0.426397
vn -0.999998 -0.000105 -0.001739
vn -0.999998 -0.000852 0.001566
vn 0.499999 0 0.866026
vn 0.499999 0 -0.866026
vn -0.499999 0 0.866026
vn -0.499999 0 -0.866026
vn -0.861037 0.508543 8.4e-05
vn 0.999999 -0.001368 0.000157
vn 0.999999 -0.001231 -0.000518
vn -0.430511 0.508572 0.745664
vn 0.498878 0.858426 0.119275
vn -0.999984 -0.004259 -0.00376
vn 0.499725 -8.9e-05 0.866184
vn -0.499725 8.1e-05 0.866184
vn 0.498367 -0.859496 -0.113569
vn 0.860992 0.508619 0.000273
vn 0.43058 0.50858 -0.745619
vn -0.500015 0.857919 -0.118155
vn -0.503433 0.421335 0.754342
vn 0.861038 0.50854 -8.4e-05
vn 0.507736 0.736847 -0.446386
s 4294967295
f 12/125/83 58/29/94 55/25/5 6/24/123
f 24/38/86 12/125/83 6/24/123 18/17/125
f 64/202/95 24/38/86 18/17/125 61/139/15
f 23/18/85 64/202/95 61/139/15 17/191/124
f 11/65/82 23/18/85 17/191/124 5/159/122
f 58/117/94 11/65/82 5/159/122 55/197/5
f 58/29/94 12/125/83 75/39/136 27/157/135
f 12/125/83 24/38/86 110/149/39 75/39/136
f 24/38/86 64/202/95 42/199/37 110/149/39
f 64/202/95 23/18/85 109/115/71 42/199/37
f 23/18/85 11/65/82 74/190/28 109/115/71
f 11/65/82 58/117/94 27/170/135 74/190/28
f 32/141/10 27/157/135 75/39/136 94/91/112
f 94/91/112 75/39/136 110/149/39 129/47/98
f 129/47/98 110/149/39 42/199/37 47/41/22
f 47/41/22 42/199/37 109/115/71 132/87/133
f 132/87/133 109/115/71 74/190/28 97/42/73
f 97/42/73 74/190/28 27/170/135 32/100/10
f 70/48/35 89/43/35 35/67/13 32/108/13
f 105/85/113 124/72/113 89/43/35 70/48/35
f 47/13/19 50/71/19 124/72/113 105/85/113
f 108/113/38 123/112/38 50/71/19 47/13/19
f 73/147/132 88/146/132 123/112/38 108/113/38
f 32/49/13 35/192/13 88/146/132 73/147/132
f 9/195/23 59/64/102 56/36/8 3/107/45
f 21/62/26 9/22/23 3/174/45 15/167/48
f 65/161/96 21/62/26 15/167/48 62/172/18
f 19/104/84 65/161/96 62/172/18 13/70/3
f 7/193/116 19/104/84 13/70/3 1/99/1
f 59/64/102 7/193/116 1/99/1 56/36/8
f 59/64/102 9/195/23 78/158/78 28/76/93
f 9/22/23 21/62/26 113/166/111 78/106/78
f 21/62/26 65/161/96 43/138/126 113/166/111
f 65/161/96 19/104/84 111/2/129 43/138/126
f 19/104/84 7/193/116 76/134/42 111/2/129
f 7/193/116 59/64/102 28/76/93 76/134/42
f 33/61/6 71/37/89 100/121/51 38/148/127
f 71/179/89 106/142/76 135/44/53 100/145/51
f 106/142/76 48/122/16 53/14/115 135/44/53
f 127/178/66 133/140/32 53/14/115 48/122/16
f 127/178/66 92/98/63 98/201/70 133/140/32
f 92/98/63 33/61/6 38/148/127 98/201/70
f 38/148/127 100/121/51 84/50/52 25/169/101
f 100/145/51 135/44/53 119/154/99 84/23/52
f 135/44/53 53/14/115 40/59/117 119/154/99
f 53/14/115 133/140/32 125/160/138 40/59/117
f 133/140/32 98/201/70 90/46/56 125/160/138
f 98/201/70 38/148/127 25/169/101 90/46/56
f 25/169/101 84/50/52 82/116/27 30/114/107
f 84/23/52 119/154/99 117/175/104 82/182/27
f 119/154/99 40/59/117 45/103/33 117/175/104
f 40/59/117 125/160/138 115/109/87 45/103/33
f 125/160/138 90/46/56 80/80/72 115/109/87
f 90/46/56 25/169/101 30/114/107 80/80/72
f 30/114/107 82/116/27 86/198/134 36/63/14
f 82/182/27 117/175/104 121/45/50 86/78/134
f 117/175/104 45/103/33 51/144/121 121/45/50
f 45/103/33 115/109/87 103/33/69 51/144/121
f 115/109/87 80/80/72 68/21/130 103/33/69
f 80/80/72 30/114/107 36/63/14 68/21/130
f 35/69/11 67/60/57 68/21/130 36/63/14
f 67/60/57 102/196/60 103/33/69 68/21/130
f 102/196/60 50/188/20 51/144/121 103/33/69
f 50/188/20 123/82/68 121/45/50 51/144/121
f 123/82/68 88/53/65 86/78/134 121/45/50
f 88/11/65 35/69/11 36/63/14 86/198/134
f 33/61/6 28/76/93 78/158/78 95/54/90
f 95/28/90 78/106/78 113/166/111 130/20/77
f 130/20/77 113/166/111 43/138/126 48/122/16
f 48/122/16 43/138/126 111/2/129 127/178/66
f 127/178/66 111/2/129 76/134/42 92/98/63
f 92/98/63 76/134/42 28/76/93 33/61/6
f 32/97/5 73/75/58 71/74/58 33/96/5
f 73/75/58 108/35/61 106/34/61 71/74/58
f 108/35/61 47/10/15 48/9/15 106/34/61
f 47/10/15 132/164/49 130/163/49 48/9/15
f 132/164/49 97/137/46 95/136/46 130/163/49
f 97/137/46 32/111/5 33/110/5 95/136/46
f 4/128/44 57/51/7 60/32/108 10/126/24
f 16/4/47 4/81/44 10/131/24 22/105/25
f 63/132/17 16/4/47 22/105/25 66/3/97
f 14/26/4 63/132/17 66/3/97 20/171/103
f 2/194/2 14/26/4 20/171/103 8/92/30
f 57/51/7 2/194/2 8/92/30 60/32/108
f 29/156/139 79/83/110 10/126/24 60/32/108
f 79/52/110 114/133/92 22/105/25 10/131/24
f 114/133/92 44/165/80 66/3/97 22/105/25
f 44/165/80 112/123/31 20/171/103 66/3/97
f 112/123/31 77/189/79 8/92/30 20/171/103
f 77/189/79 29/156/139 60/32/108 8/92/30
f 39/93/128 101/151/55 72/84/59 34/8/12
f 101/1/55 136/184/54 107/7/62 72/27/59
f 136/184/54 54/183/114 49/40/21 107/7/62
f 49/40/21 54/183/114 134/55/88 128/95/67
f 134/55/88 99/6/40 93/102/64 128/95/67
f 99/6/40 39/93/128 34/8/12 93/102/64
f 26/5/100 85/73/105 101/151/55 39/93/128
f 85/120/105 120/187/74 136/184/54 101/1/55
f 120/187/74 41/12/131 54/183/114 136/184/54
f 41/12/131 126/16/109 134/55/88 54/183/114
f 126/16/109 91/129/41 99/6/40 134/55/88
f 91/129/41 26/5/100 39/93/128 99/6/40
f 31/68/106 83/135/81 85/73/105 26/5/100
f 83/86/81 118/19/119 120/187/74 85/120/105
f 118/19/119 46/173/36 41/12/131 120/187/74
f 46/173/36 116/162/118 126/16/109 41/12/131
f 116/162/118 81/124/140 91/129/41 126/16/109
f 81/124/140 31/68/106 26/5/100 91/129/41
f 37/66/9 87/58/29 83/135/81 31/68/106
f 87/150/29 122/176/34 118/19/119 83/86/81
f 122/176/34 52/15/120 46/173/36 118/19/119
f 52/15/120 104/143/137 116/162/118 46/173/36
f 104/143/137 69/200/43 81/124/140 116/162/118
f 69/200/43 37/66/9 31/68/106 81/124/140
f 35/77/11 37/66/9 69/200/43 67/177/57
f 69/200/43 104/143/137 102/101/60 67/177/57
f 104/143/137 52/15/120 50/127/20 102/101/60
f 52/15/120 122/176/34 124/94/68 50/127/20
f 122/176/34 87/150/29 89/88/65 124/94/68
f 87/58/29 37/66/9 35/77/11 89/168/65
f 96/130/75 79/83/110 29/156/139 34/8/12
f 131/155/91 114/133/92 79/52/110 96/79/75
f 49/40/21 44/165/80 114/133/92 131/155/91
f 128/95/67 112/123/31 44/165/80 49/40/21
f 93/102/64 77/189/79 112/123/31 128/95/67
f 34/8/12 29/156/139 77/189/79 93/102/64
f 34/181/5 72/153/58 70/152/58 32/180/5
f 72/153/58 107/119/61 105/118/61 70/152/58
f 107/119/61 49/90/15 47/89/15 105/118/61
f 49/90/15 131/57/49 129/56/49 47/89/15
f 131/57/49 96/31/46 94/30/46 129/56/49
f 96/31/46 34/186/5 32/185/5 94/30/46
