# Wavefront OBJ file
# Creator: Ultimate Unwrap3D Pro v3.32
# Website: http://www.unwrap3d.com
# Time: Mon Dec 19 01:39:12 2011
# num_vertices: 115
# num_vertex_normals: 115
# num_uvs: 212
# num_faces: 55
# num_groups: 1

v -0.178176 -0.277464 -0.669888
v -0.178176 0.277464 -0.669888
v -0.178176 0.669888 -0.277464
v -0.178176 0.669888 0.277464
v -0.178176 0.277464 0.669888
v -0.178176 -0.277464 0.669888
v -0.178176 -0.669888 0.277464
v -0.178176 -0.669888 -0.277464
v 0.178176 0.000000 0.000000
v -0.178176 1.183992 -0.359016
v -0.178176 1.183992 0.359016
v -0.178176 1.717248 -0.370488
v -0.178176 1.717248 0.370488
v -0.178176 2.214336 -0.261768
v -0.178176 2.214336 0.261768
v -0.178176 3.058440 -0.160992
v -0.178176 3.058440 0.160992
v -0.178176 3.986760 -0.483528
v -0.178176 3.986760 0.483528
v -0.178176 4.296240 -0.713352
v -0.178176 4.296240 0.713352
v -0.178176 4.749096 -0.747264
v -0.178176 4.749096 0.747264
v -0.178176 5.347152 -0.572904
v -0.178176 5.347152 0.572904
v -0.178176 5.987256 -0.295680
v -0.178176 5.987256 0.295680
v -0.178176 6.418416 -0.177696
v -0.178176 6.418416 0.177696
v 0.178176 -0.277464 -0.669888
v 0.178176 -0.277464 -0.669888
v 0.178176 0.277464 -0.669888
v 0.178176 0.277464 -0.669888
v 0.178176 0.669888 -0.277464
v 0.178176 0.669888 -0.277464
v 0.178176 0.669888 0.277464
v 0.178176 0.669888 0.277464
v 0.178176 0.277464 0.669888
v 0.178176 0.277464 0.669888
v 0.178176 -0.277464 0.669888
v 0.178176 -0.277464 0.669888
v 0.178176 -0.669888 0.277464
v 0.178176 -0.669888 0.277464
v 0.178176 -0.669888 -0.277464
v 0.178176 -0.669888 -0.277464
v 0.178176 0.864600 0.196656
v 0.178176 0.864600 -0.196656
v 0.178176 1.183992 0.359016
v 0.178176 1.183992 0.359016
v 0.178176 1.183992 -0.359016
v 0.178176 1.183992 -0.359016
v 0.178176 1.717248 0.370488
v 0.178176 1.717248 0.370488
v 0.178176 1.717248 -0.370488
v 0.178176 1.717248 -0.370488
v 0.178176 2.214336 0.261768
v 0.178176 2.214336 0.261768
v 0.178176 2.214336 -0.261768
v 0.178176 2.214336 -0.261768
v 0.178176 3.058440 0.160992
v 0.178176 3.058440 0.160992
v 0.178176 3.058440 -0.160992
v 0.178176 3.058440 -0.160992
v 0.178176 3.828312 0.143376
v 0.178176 3.828312 0.143376
v 0.178176 3.828312 0.143376
v 0.178176 3.828312 -0.143376
v 0.178176 3.828312 -0.143376
v 0.178176 3.828312 -0.143376
v -0.178176 3.828312 -0.143376
v -0.178176 3.828312 -0.143376
v -0.178176 3.828312 0.143376
v -0.178176 3.828312 0.143376
v 0.178176 3.986760 0.483528
v 0.178176 3.986760 0.483528
v 0.178176 3.986760 -0.483528
v 0.178176 3.986760 -0.483528
v 0.178176 4.296240 0.713352
v 0.178176 4.296240 0.713352
v 0.178176 4.296240 -0.713352
v 0.178176 4.296240 -0.713352
v 0.178176 4.749096 0.747264
v 0.178176 4.749096 0.747264
v 0.178176 4.749096 -0.747264
v 0.178176 4.749096 -0.747264
v 0.178176 5.347152 0.567216
v 0.178176 5.347152 0.567216
v 0.178176 5.347152 -0.567216
v 0.178176 5.347152 -0.567216
v 0.178176 5.987256 0.292752
v 0.178176 5.987256 0.292752
v 0.178176 5.987256 -0.292752
v 0.178176 5.987256 -0.292752
v 0.178176 6.418416 0.175944
v 0.178176 6.418416 0.175944
v 0.178176 6.418416 -0.175944
v 0.178176 6.418416 -0.175944
v 0.178176 7.364136 0.078960
v 0.178176 7.364136 0.078960
v 0.178176 7.364136 0.078960
v 0.178176 7.364136 -0.078960
v 0.178176 7.364136 -0.078960
v 0.178176 7.364136 -0.078960
v -0.178176 7.364136 -0.079728
v -0.178176 7.364136 -0.079728
v -0.178176 7.364136 0.079728
v -0.178176 7.364136 0.079728
v -0.178176 0.864600 -0.196656
v -0.178176 0.864600 -0.196656
v -0.178176 0.864600 0.196656
v -0.178176 0.864600 0.196656
v 0.178176 0.864600 0.196656
v 0.178176 0.864600 0.196656
v 0.178176 0.864600 -0.196656
v 0.178176 0.864600 -0.196656
# num_vertices: 115

vn 0.000000 -0.382683 -0.923880
vn 0.000000 0.382683 -0.923880
vn 0.000000 0.555854 -0.831280
vn 0.000000 0.555854 0.831280
vn 0.000000 0.382683 0.923880
vn 0.000000 -0.382683 0.923880
vn 0.000000 -0.923880 0.382683
vn 0.000000 -0.923880 -0.382683
vn 1.000000 0.000000 0.000000
vn 0.000000 -0.243433 -0.969918
vn 0.000000 -0.243433 0.969918
vn 0.000000 0.096755 -0.995308
vn 0.000000 0.096755 0.995308
vn 0.000000 0.166298 -0.986075
vn 0.000000 0.166298 0.986075
vn 0.000000 0.070792 -0.997491
vn 0.000000 0.070792 0.997491
vn 0.000000 -0.775062 -0.631885
vn 0.000000 -0.775062 0.631885
vn 0.000000 -0.349232 -0.937036
vn 0.000000 -0.349232 0.937036
vn 0.000000 0.108625 -0.994083
vn 0.000000 0.104278 0.994548
vn 0.007346 0.341708 -0.939777
vn 0.007337 0.339307 0.940647
vn 0.011327 0.328572 -0.944411
vn 0.011314 0.331487 0.943392
vn 0.006432 0.182349 -0.983213
vn 0.006429 0.184103 0.982886
vn 0.000000 -0.382683 -0.923880
vn 1.000000 0.000000 0.000000
vn 0.000000 0.382683 -0.923880
vn 1.000000 0.000000 0.000000
vn 1.000000 0.000000 0.000000
vn 0.000000 0.555854 -0.831280
vn 1.000000 0.000000 0.000000
vn 0.000000 0.555854 0.831280
vn 0.000000 0.382683 0.923880
vn 1.000000 0.000000 0.000000
vn 0.000000 -0.382683 0.923880
vn 1.000000 0.000000 0.000000
vn 0.000000 -0.923880 0.382683
vn 1.000000 0.000000 0.000000
vn 0.000000 -0.923880 -0.382683
vn 1.000000 0.000000 0.000000
vn 1.000000 0.000000 0.000000
vn 1.000000 0.000000 0.000000
vn 0.000000 -0.243433 0.969918
vn 1.000000 0.000000 0.000000
vn 0.000000 -0.243433 -0.969918
vn 1.000000 0.000000 0.000000
vn 0.000000 0.096755 0.995308
vn 1.000000 0.000000 0.000000
vn 0.000000 0.096755 -0.995308
vn 1.000000 0.000000 0.000000
vn 0.000000 0.166298 0.986075
vn 1.000000 0.000000 0.000000
vn 0.000000 0.166298 -0.986075
vn 1.000000 0.000000 0.000000
vn 1.000000 0.000000 0.000000
vn 0.000000 0.070792 0.997491
vn 1.000000 0.000000 0.000000
vn 0.000000 0.070792 -0.997491
vn 1.000000 0.000000 0.000000
vn 0.000000 0.022876 0.999738
vn 0.000000 -0.906479 0.422252
vn 1.000000 0.000000 0.000000
vn 0.000000 0.022876 -0.999738
vn 0.000000 -0.906479 -0.422252
vn 0.000000 0.022876 -0.999738
vn 0.000000 -0.906479 -0.422252
vn 0.000000 0.022876 0.999738
vn 0.000000 -0.906479 0.422252
vn 0.000000 -0.775062 0.631885
vn 1.000000 0.000000 0.000000
vn 0.000000 -0.775062 -0.631885
vn 1.000000 0.000000 0.000000
vn 0.000000 -0.349232 0.937036
vn 1.000000 0.000000 0.000000
vn 0.000000 -0.349232 -0.937036
vn 1.000000 0.000000 0.000000
vn 0.000000 0.104278 0.994548
vn 1.000000 0.000000 0.000000
vn 0.000000 0.108625 -0.994083
vn 1.000000 0.000000 0.000000
vn 0.007337 0.339307 0.940647
vn 1.000000 0.000000 0.000000
vn 0.007346 0.341708 -0.939777
vn 1.000000 0.000000 0.000000
vn 0.011314 0.331487 0.943392
vn 1.000000 0.000000 0.000000
vn 0.011327 0.328572 -0.944411
vn 1.000000 0.000000 0.000000
vn 1.000000 0.000000 0.000000
vn 0.006429 0.184103 0.982886
vn 1.000000 0.000000 0.000000
vn 0.006432 0.182349 -0.983213
vn 0.000000 1.000000 0.000000
vn 1.000000 0.000000 0.000000
vn 0.004890 0.103038 0.994665
vn 0.000000 1.000000 0.000000
vn 1.000000 0.000000 0.000000
vn 0.004891 0.102014 -0.994771
vn 0.000000 1.000000 0.000000
vn 0.004891 0.102014 -0.994771
vn 0.000000 1.000000 0.000000
vn 0.004890 0.103038 0.994665
vn 0.000000 0.383314 -0.923618
vn 0.000000 -0.453152 -0.891433
vn 0.000000 0.383314 0.923618
vn 0.000000 -0.453152 0.891433
vn 0.000000 0.383314 0.923618
vn 0.000000 -0.453152 0.891433
vn 0.000000 0.383314 -0.923618
vn 0.000000 -0.453152 -0.891433
# num_vertex_normals: 115

vt 0.058242 0.121701
vt 0.058242 0.053312
vt 0.058242 0.053312
vt 0.058242 0.121701
vt 0.058242 0.053312
vt 0.058242 0.121701
vt 0.500000 0.087506
vt 0.317026 0.170062
vt 0.058242 0.121701
vt 0.058242 0.121701
vt 0.317026 0.170062
vt 0.058242 0.121701
vt 0.317026 0.170062
vt 0.500000 0.087506
vt 0.552070 0.995049
vt 0.447930 0.995049
vt 0.447423 0.995049
vt 0.552577 0.995049
vt 0.317026 0.170062
vt 0.682974 0.170062
vt 0.500000 0.087506
vt 0.941758 0.121701
vt 0.682974 0.170062
vt 0.682974 0.170062
vt 0.941758 0.121701
vt 0.682974 0.170062
vt 0.941758 0.121701
vt 0.500000 0.087506
vt 0.941758 0.053312
vt 0.941758 0.121701
vt 0.941758 0.121701
vt 0.941758 0.053312
vt 0.941758 0.121701
vt 0.941758 0.053312
vt 0.500000 0.087506
vt 0.682974 0.004950
vt 0.941758 0.053312
vt 0.941758 0.053312
vt 0.682974 0.004950
vt 0.941758 0.053312
vt 0.682974 0.004950
vt 0.500000 0.087506
vt 0.317026 0.004950
vt 0.682974 0.004950
vt 0.682974 0.004950
vt 0.317026 0.004950
vt 0.682974 0.004950
vt 0.317026 0.004950
vt 0.500000 0.087506
vt 0.058242 0.053312
vt 0.317026 0.004950
vt 0.317026 0.004950
vt 0.058242 0.053312
vt 0.317026 0.004950
vt 0.058242 0.053312
vt 0.500000 0.087506
vt 0.682974 0.170062
vt 0.317026 0.170062
vt 0.370315 0.194058
vt 0.629685 0.194058
vt 0.317026 0.170062
vt 0.317026 0.170062
vt 0.370315 0.194058
vt 0.370315 0.194058
vt 0.682974 0.170062
vt 0.682974 0.170062
vt 0.629685 0.194058
vt 0.629685 0.194058
vt 0.629685 0.194058
vt 0.370315 0.194058
vt 0.263247 0.233419
vt 0.736753 0.233419
vt 0.370315 0.194058
vt 0.370315 0.194058
vt 0.263247 0.233419
vt 0.263247 0.233419
vt 0.629685 0.194058
vt 0.629685 0.194058
vt 0.736753 0.233419
vt 0.736753 0.233419
vt 0.736753 0.233419
vt 0.263247 0.233419
vt 0.255682 0.299137
vt 0.744318 0.299137
vt 0.263247 0.233419
vt 0.263247 0.233419
vt 0.255682 0.299137
vt 0.255682 0.299137
vt 0.736753 0.233419
vt 0.736753 0.233419
vt 0.744318 0.299137
vt 0.744318 0.299137
vt 0.744318 0.299137
vt 0.255682 0.299137
vt 0.327377 0.360397
vt 0.672623 0.360397
vt 0.255682 0.299137
vt 0.255682 0.299137
vt 0.327377 0.360397
vt 0.327377 0.360397
vt 0.744318 0.299137
vt 0.744318 0.299137
vt 0.672623 0.360397
vt 0.672623 0.360397
vt 0.672623 0.360397
vt 0.327377 0.360397
vt 0.393834 0.464423
vt 0.606166 0.464423
vt 0.327377 0.360397
vt 0.327377 0.360397
vt 0.393834 0.464423
vt 0.393834 0.464423
vt 0.672623 0.360397
vt 0.672623 0.360397
vt 0.606166 0.464423
vt 0.606166 0.464423
vt 0.606166 0.464423
vt 0.393834 0.464423
vt 0.405451 0.559301
vt 0.594549 0.559301
vt 0.393834 0.464423
vt 0.393834 0.464423
vt 0.405451 0.559301
vt 0.405451 0.559301
vt 0.606166 0.464423
vt 0.606166 0.464423
vt 0.594549 0.559301
vt 0.594549 0.559301
vt 0.594549 0.559301
vt 0.405451 0.559301
vt 0.181137 0.578828
vt 0.818863 0.578828
vt 0.405451 0.559301
vt 0.405451 0.559301
vt 0.181137 0.578828
vt 0.181137 0.578828
vt 0.594549 0.559301
vt 0.594549 0.559301
vt 0.818863 0.578828
vt 0.818863 0.578828
vt 0.818863 0.578828
vt 0.181137 0.578828
vt 0.029580 0.616967
vt 0.970420 0.616967
vt 0.181137 0.578828
vt 0.181137 0.578828
vt 0.029580 0.616967
vt 0.029580 0.616967
vt 0.818863 0.578828
vt 0.818863 0.578828
vt 0.970420 0.616967
vt 0.970420 0.616967
vt 0.970420 0.616967
vt 0.029580 0.616967
vt 0.007217 0.672777
vt 0.992783 0.672777
vt 0.029580 0.616967
vt 0.029580 0.616967
vt 0.007217 0.672777
vt 0.007217 0.672777
vt 0.970420 0.616967
vt 0.970420 0.616967
vt 0.992783 0.672777
vt 0.992783 0.672777
vt 0.992783 0.672777
vt 0.007217 0.672777
vt 0.125949 0.746480
vt 0.874051 0.746480
vt 0.007217 0.672777
vt 0.007217 0.672777
vt 0.122199 0.746480
vt 0.125949 0.746480
vt 0.992783 0.672777
vt 0.992783 0.672777
vt 0.874051 0.746480
vt 0.877801 0.746480
vt 0.874051 0.746480
vt 0.125949 0.746480
vt 0.306945 0.825365
vt 0.693055 0.825365
vt 0.125949 0.746480
vt 0.122199 0.746480
vt 0.305014 0.825365
vt 0.306945 0.825365
vt 0.877801 0.746480
vt 0.874051 0.746480
vt 0.693055 0.825365
vt 0.694986 0.825365
vt 0.693055 0.825365
vt 0.306945 0.825365
vt 0.383974 0.878501
vt 0.616026 0.878501
vt 0.306945 0.825365
vt 0.305014 0.825365
vt 0.382818 0.878501
vt 0.383974 0.878501
vt 0.694986 0.825365
vt 0.693055 0.825365
vt 0.616026 0.878501
vt 0.617182 0.878501
vt 0.616026 0.878501
vt 0.383974 0.878501
vt 0.447930 0.995049
vt 0.552070 0.995049
vt 0.383974 0.878501
vt 0.382818 0.878501
vt 0.447423 0.995049
vt 0.447930 0.995049
vt 0.617182 0.878501
vt 0.616026 0.878501
vt 0.552070 0.995049
vt 0.552577 0.995049
# num_uvs: 212

g base

f 32/1/32 30/2/30 1/3/1 2/4/2 
f 31/5/31 33/6/33 9/7/9 
f 35/8/35 32/9/32 2/10/2 3/11/3 
f 33/12/33 34/13/34 9/14/9 
f 98/15/98 101/16/101 104/17/104 106/18/106 
f 34/19/34 36/20/36 9/21/9 
f 38/22/38 37/23/37 4/24/4 5/25/5 
f 36/26/36 39/27/39 9/28/9 
f 40/29/40 38/30/38 5/31/5 6/32/6 
f 39/33/39 41/34/41 9/35/9 
f 42/36/42 40/37/40 6/38/6 7/39/7 
f 41/40/41 43/41/43 9/42/9 
f 44/43/44 42/44/42 7/45/7 8/46/8 
f 43/47/43 45/48/45 9/49/9 
f 30/50/30 44/51/44 8/52/8 1/53/1 
f 45/54/45 31/55/31 9/56/9 
f 36/57/36 34/58/34 47/59/47 46/60/46 
f 35/61/35 3/62/3 108/63/108 114/64/114 
f 4/65/4 37/66/37 112/67/112 110/68/110 
f 46/69/46 47/70/47 51/71/51 49/72/49 
f 115/73/115 109/74/109 10/75/10 50/76/50 
f 111/77/111 113/78/113 48/79/48 11/80/11 
f 49/81/49 51/82/51 55/83/55 53/84/53 
f 50/85/50 10/86/10 12/87/12 54/88/54 
f 11/89/11 48/90/48 52/91/52 13/92/13 
f 53/93/53 55/94/55 59/95/59 57/96/57 
f 54/97/54 12/98/12 14/99/14 58/100/58 
f 13/101/13 52/102/52 56/103/56 15/104/15 
f 57/105/57 59/106/59 62/107/62 60/108/60 
f 58/109/58 14/110/14 16/111/16 63/112/63 
f 15/113/15 56/114/56 61/115/61 17/116/17 
f 60/117/60 62/118/62 67/119/67 64/120/64 
f 63/121/63 16/122/16 70/123/70 68/124/68 
f 17/125/17 61/126/61 65/127/65 72/128/72 
f 64/129/64 67/130/67 77/131/77 75/132/75 
f 69/133/69 71/134/71 18/135/18 76/136/76 
f 73/137/73 66/138/66 74/139/74 19/140/19 
f 75/141/75 77/142/77 81/143/81 79/144/79 
f 76/145/76 18/146/18 20/147/20 80/148/80 
f 19/149/19 74/150/74 78/151/78 21/152/21 
f 79/153/79 81/154/81 85/155/85 83/156/83 
f 80/157/80 20/158/20 22/159/22 84/160/84 
f 21/161/21 78/162/78 82/163/82 23/164/23 
f 83/165/83 85/166/85 89/167/89 87/168/87 
f 84/169/84 22/170/22 24/171/24 88/172/88 
f 23/173/23 82/174/82 86/175/86 25/176/25 
f 87/177/87 89/178/89 93/179/93 91/180/91 
f 88/181/88 24/182/24 26/183/26 92/184/92 
f 25/185/25 86/186/86 90/187/90 27/188/27 
f 91/189/91 93/190/93 96/191/96 94/192/94 
f 92/193/92 26/194/26 28/195/28 97/196/97 
f 27/197/27 90/198/90 95/199/95 29/200/29 
f 94/201/94 96/202/96 102/203/102 99/204/99 
f 97/205/97 28/206/28 105/207/105 103/208/103 
f 29/209/29 95/210/95 100/211/100 107/212/107 
# num_faces: 55

