mtllib model.mtl
o model.obj
v -6.173454 -2.724119 1.235238
v 0.013950 3.710787 -0.002243
v -3.450996 -2.724119 5.195179
v -5.183472 -2.724119 -3.467191
v -1.223530 -2.724119 -6.189649
v 3.478899 -2.724119 -5.199663
v 6.201357 -2.724119 -1.239724
v 5.211372 -2.724119 3.462705
v 1.251432 -2.724119 6.185163
v -2.213516 -1.239141 3.710201
v 0.508943 -0.744146 4.205194
v -2.213516 -0.744146 3.710201
v 0.508943 -1.239141 4.205194
v -8.400921 -2.971616 24.004894
v -6.420952 -2.229124 12.372570
v -6.420952 -1.734136 12.372570
v -8.153423 -3.466604 24.004894
v -1.471027 0.988330 25.242376
v 1.003937 0.245837 13.857547
v 1.251432 -0.249158 13.857547
v -1.718521 1.483317 25.242376
v -4.935974 -1.239141 25.984863
v -0.728539 -0.744146 -3.714686
v 1.746426 -0.744146 -3.219694
v -0.728539 -1.239141 -3.714686
v 1.746426 -1.239141 -3.219694
v -1.471027 -1.734136 -13.614536
v -1.223530 -2.229124 -13.367040
v 1.251432 -2.971616 -24.999363
v 1.498928 -3.466604 -24.999363
v 6.201357 -0.249158 -12.129559
v 5.953861 0.245837 -12.129559
v 7.933830 0.988330 -23.761881
v 7.686335 1.483317 -23.761881
v 4.963877 -1.239141 -25.741852
v -3.698494 -1.239141 -1.734717
v -4.193485 -0.744146 0.740246
v -3.698494 -0.744146 -1.734717
v -4.193485 -1.239141 0.740246
v -23.993185 -2.971616 -7.922123
v -12.360863 -2.229124 -5.942152
v -12.360863 -1.734136 -6.189649
v -23.993185 -3.466604 -7.674626
v -25.230669 0.988330 -1.239724
v -13.845840 0.245837 1.235238
v -13.845840 -0.249158 1.482734
v -25.230669 1.483317 -1.487221
v -25.973158 -1.239141 -4.704672
v 3.726395 -0.744146 -0.497236
v 3.231401 -0.744146 2.225224
v 3.726395 -1.239141 -0.497236
v 3.231401 -1.239141 2.225224
v 13.378748 -1.734136 -1.239724
v 13.378748 -2.229124 -0.992228
v 25.011070 -2.971616 1.482734
v 25.011070 -3.466604 1.730231
v 11.893770 -0.249158 6.432659
v 12.141268 0.245837 6.432659
v 23.773588 0.988330 8.165133
v 23.773588 1.483317 7.917638
v 25.753559 -1.239141 5.195179
v -3.945988 -1.239141 1.235238
v -2.461010 -0.744146 3.462705
v -3.945988 -0.744146 1.235238
v -2.461010 -1.239141 3.462705
v -22.755705 -2.971616 11.135089
v -13.103352 -2.229124 4.452689
v -13.350845 -1.734136 4.205194
v -22.755705 -3.466604 11.382585
v -19.043261 0.988330 17.074999
v -8.895912 0.245837 10.640096
v -8.895912 -0.249158 10.640096
v -19.043261 1.483317 16.827503
v -21.765722 -1.239141 14.847532
v 2.241417 -0.744146 -2.972198
v 3.726395 -0.744146 -0.744732
v 2.241417 -1.239141 -2.972198
v 3.726395 -1.239141 -0.744732
v 8.676319 -1.734136 -10.397085
v 8.676319 -2.229124 -10.397085
v 18.576168 -2.971616 -16.584490
v 18.823664 -3.466604 -16.584490
v 12.883757 -0.249158 -3.962183
v 12.883757 0.245837 -3.962183
v 22.536108 0.988330 -10.892077
v 22.288610 1.483317 -11.139574
v 21.793619 -1.239141 -14.357024
v -1.223530 -1.239141 -3.714686
v -3.450996 -0.744146 -2.229709
v -1.223530 -0.744146 -3.714686
v -3.450996 -1.239141 -2.229709
v -11.123379 -2.971616 -22.524401
v -4.440983 -2.229124 -12.872047
v -4.193485 -1.734136 -12.872047
v -11.370876 -3.466604 -22.276903
v -17.063292 0.988330 -18.564461
v -10.628387 0.245837 -8.664611
v -10.628387 -0.249158 -8.664611
v -16.815794 1.483317 -18.811956
v -14.835823 -1.239141 -21.534416
v 2.983906 -0.744146 2.472720
v 0.756439 -0.744146 3.957697
v 2.983906 -1.239141 2.472720
v 0.756439 -1.239141 3.957697
v 10.408792 -1.734136 8.907622
v 10.408792 -2.229124 8.907622
v 16.596197 -2.971616 18.807472
v 16.348701 -3.466604 19.054970
v 3.973890 -0.249158 13.115058
v 3.973890 0.245837 13.115058
v 10.903786 0.988330 22.767412
v 11.151281 1.483317 22.519917
v 14.368732 -1.239141 22.024925
v 0.013950 -2.724119 -0.002243
vn -0.882609 -0.435709 0.176522
vn -0.000000 1.000000 0.000000
vn -0.500229 -0.432151 0.750344
vn -0.750344 -0.432151 -0.500229
vn -0.176521 -0.435709 -0.882609
vn 0.500229 -0.432151 -0.750344
vn 0.882609 -0.435709 -0.176522
vn 0.750344 -0.432151 0.500229
vn 0.176522 -0.435709 0.882609
vn -0.415974 -0.290822 -0.861619
vn 0.647932 0.412026 -0.640639
vn -0.358524 0.734749 -0.575851
vn 0.537474 -0.738270 -0.407527
vn -0.935382 0.260904 0.238726
vn -0.543521 -0.812736 -0.209868
vn -0.784560 0.567221 -0.250450
vn 0.010474 -0.963248 0.268410
vn 0.866130 -0.204089 0.456253
vn 0.458724 0.888540 -0.008334
vn 0.894438 -0.443982 0.053484
vn -0.090079 0.916150 0.390583
vn -0.116580 -0.088630 0.989219
vn -0.545193 0.734722 0.403669
vn 0.368882 0.399820 0.839089
vn -0.660748 -0.400258 0.634985
vn 0.349355 -0.735015 0.581124
vn -0.898719 0.435482 -0.051568
vn -0.454220 -0.890806 0.012178
vn -0.815850 0.162898 -0.554845
vn 0.094926 -0.957575 -0.272102
vn 0.848899 -0.444535 0.285936
vn 0.428617 0.884880 0.182415
vn 0.978366 -0.164271 -0.125756
vn 0.017296 0.926779 -0.375209
vn 0.165020 0.035889 -0.985637
vn 0.842081 -0.397496 -0.364548
vn 0.635235 0.409725 0.654677
vn 0.584095 0.733941 -0.346646
vn 0.404484 -0.734396 0.545027
vn -0.231698 0.142016 -0.962366
vn 0.184696 -0.884757 -0.427893
vn 0.291526 0.445819 -0.846320
vn -0.280870 -0.959662 0.012653
vn -0.466583 -0.196981 0.862264
vn 0.009733 0.888268 0.459223
vn -0.053896 -0.438878 0.896929
vn -0.380297 0.919414 -0.100266
vn -0.987685 -0.086506 -0.130367
vn -0.406644 0.738184 -0.538260
vn -0.846693 0.348952 0.401675
vn -0.640639 -0.412028 -0.647931
vn -0.575851 -0.734750 0.358523
vn 0.050666 0.440741 -0.896203
vn -0.009085 -0.888549 -0.458691
vn 0.550409 0.177917 -0.815718
vn 0.272294 -0.957664 0.093466
vn -0.254168 -0.524288 0.812724
vn -0.191862 0.838575 0.509884
vn 0.131611 -0.257303 0.957326
vn 0.376504 0.926191 0.020350
vn 0.985637 0.035889 0.165019
vn 0.345634 -0.430840 -0.833615
vn 0.954850 0.292975 0.049258
vn 0.171283 0.734849 -0.656246
vn 0.667280 -0.736896 0.108262
vn -0.828786 0.209319 -0.518941
vn -0.152734 -0.902592 -0.402491
vn -0.390494 0.414408 -0.822059
vn -0.232000 -0.956239 0.178280
vn 0.248235 -0.287373 0.925092
vn 0.407951 0.805302 0.430191
vn 0.531076 -0.566369 0.630226
vn -0.365765 0.918729 0.148840
vn -0.874033 0.143033 0.464336
vn -0.669650 0.735876 -0.100274
vn -0.320867 0.293230 0.900589
vn -0.955688 -0.291392 -0.041838
vn -0.156914 -0.738500 0.655741
vn -0.536483 0.565762 -0.626178
vn -0.417509 -0.791098 -0.447047
vn -0.189838 0.381652 -0.904601
vn 0.230789 -0.954885 -0.186901
vn 0.380894 -0.567899 0.729664
vn 0.221936 0.832026 0.508406
vn 0.764490 -0.246159 0.595785
vn 0.254310 0.928339 -0.271133
vn 0.754798 0.191398 -0.627413
vn 0.849188 -0.406137 0.337538
vn -0.049258 0.292975 0.954850
vn 0.657032 0.735171 0.166832
vn -0.108262 -0.736896 0.667280
vn 0.507025 0.111377 -0.854705
vn 0.417563 -0.894587 -0.159234
vn 0.801752 0.453041 -0.389804
vn -0.221565 -0.960558 -0.168039
vn -0.923773 -0.290557 0.249440
vn -0.394548 0.831675 0.390703
vn -0.627655 -0.566092 0.534405
vn -0.169702 0.921327 -0.349795
vn -0.600149 -0.114296 -0.791681
vn 0.100275 0.735876 -0.669650
vn -0.900589 0.293230 -0.320868
vn 0.041839 -0.291392 -0.955688
vn -0.655741 -0.738500 -0.156914
vn 0.626178 0.565762 -0.536483
vn 0.396571 -0.832247 -0.387422
vn 0.955046 0.250814 -0.158051
vn 0.096548 -0.961169 0.258521
vn -0.731371 -0.565846 0.380675
vn -0.508406 0.832026 0.221936
vn -0.588746 -0.239783 0.771934
vn 0.271132 0.928339 0.254311
vn 0.586595 0.044132 0.808677
vn 0.000000 -1.000000 0.000000
vt 0.765625 0.175781
vt 0.875000 0.128906
vt 0.828125 0.242188
vt 0.921875 0.242188
vt 0.988281 0.175781
vt 0.984375 0.082031
vt 0.921875 0.011719
vt 0.828125 0.015625
vt 0.765625 0.082031
vt 0.738281 0.164063
vt 0.738281 0.085938
vt 0.738281 0.164063
vt 0.738281 0.085938
vt 0.437500 0.242188
vt 0.437500 0.242188
vt 0.050781 0.242188
vt 0.050781 0.242188
vt 0.437500 0.007813
vt 0.437500 0.007813
vt 0.050781 0.007813
vt 0.050781 0.007813
vt 0.007813 0.125000
vt 0.738281 0.164063
vt 0.738281 0.085938
vt 0.738281 0.164063
vt 0.738281 0.085938
vt 0.050781 0.242188
vt 0.437500 0.242188
vt 0.437500 0.242188
vt 0.050781 0.242188
vt 0.050781 0.007813
vt 0.437500 0.007813
vt 0.437500 0.007813
vt 0.050781 0.007813
vt 0.007813 0.125000
vt 0.738281 0.164063
vt 0.738281 0.085938
vt 0.738281 0.164063
vt 0.738281 0.085938
vt 0.437500 0.242188
vt 0.437500 0.242188
vt 0.050781 0.242188
vt 0.050781 0.242188
vt 0.437500 0.007813
vt 0.437500 0.007813
vt 0.050781 0.007813
vt 0.050781 0.007813
vt 0.007813 0.125000
vt 0.738281 0.164063
vt 0.738281 0.085938
vt 0.738281 0.164063
vt 0.738281 0.085938
vt 0.050781 0.242188
vt 0.437500 0.242188
vt 0.437500 0.242188
vt 0.050781 0.242188
vt 0.050781 0.007813
vt 0.437500 0.007813
vt 0.437500 0.007813
vt 0.050781 0.007813
vt 0.007813 0.125000
vt 0.738281 0.164063
vt 0.738281 0.085938
vt 0.738281 0.164063
vt 0.738281 0.085938
vt 0.437500 0.242188
vt 0.437500 0.242188
vt 0.050781 0.242188
vt 0.050781 0.242188
vt 0.437500 0.007813
vt 0.437500 0.007813
vt 0.050781 0.007813
vt 0.050781 0.007813
vt 0.007813 0.125000
vt 0.738281 0.164063
vt 0.738281 0.085938
vt 0.738281 0.164063
vt 0.738281 0.085938
vt 0.050781 0.242188
vt 0.437500 0.242188
vt 0.437500 0.242188
vt 0.050781 0.242188
vt 0.050781 0.007813
vt 0.437500 0.007813
vt 0.437500 0.007813
vt 0.050781 0.007813
vt 0.007813 0.125000
vt 0.738281 0.164063
vt 0.738281 0.085938
vt 0.738281 0.164063
vt 0.738281 0.085938
vt 0.437500 0.242188
vt 0.437500 0.242188
vt 0.050781 0.242188
vt 0.050781 0.242188
vt 0.437500 0.007813
vt 0.437500 0.007813
vt 0.050781 0.007813
vt 0.050781 0.007813
vt 0.007813 0.125000
vt 0.738281 0.164063
vt 0.738281 0.085938
vt 0.738281 0.164063
vt 0.738281 0.085938
vt 0.050781 0.242188
vt 0.437500 0.242188
vt 0.437500 0.242188
vt 0.050781 0.242188
vt 0.050781 0.007813
vt 0.437500 0.007813
vt 0.437500 0.007813
vt 0.050781 0.007813
vt 0.007813 0.125000
vt 0.875000 0.128906
g base
usemtl Default
f 3/1/3 2/2/2 1/3/1 
f 1/3/1 2/2/2 4/4/4 
f 4/4/4 2/2/2 5/5/5 
f 5/5/5 2/2/2 6/6/6 
f 6/6/6 2/2/2 7/7/7 
f 7/7/7 2/2/2 8/8/8 
f 8/8/8 2/2/2 9/9/9 
f 9/9/9 2/2/2 3/1/3 
f 12/10/12 11/11/11 10/12/10 
f 11/11/11 13/13/13 10/12/10 
f 16/14/16 15/15/15 14/16/14 
f 15/15/15 17/17/17 14/16/14 
f 20/18/20 19/19/19 18/20/18 
f 19/19/19 21/21/21 18/20/18 
f 10/12/10 15/15/15 16/14/16 
f 10/12/10 16/14/16 12/10/12 
f 11/11/11 19/19/19 20/18/20 
f 11/11/11 20/18/20 13/13/13 
f 22/22/22 14/16/14 17/17/17 
f 22/22/22 18/20/18 21/21/21 
f 25/23/25 24/24/24 23/25/23 
f 25/23/25 26/26/26 24/24/24 
f 29/27/29 28/28/28 27/29/27 
f 29/27/29 30/30/30 28/28/28 
f 33/31/33 32/32/32 31/33/31 
f 33/31/33 34/34/34 32/32/32 
f 27/29/27 28/28/28 25/23/25 
f 23/25/23 27/29/27 25/23/25 
f 31/33/31 32/32/32 24/24/24 
f 26/26/26 31/33/31 24/24/24 
f 30/30/30 29/27/29 35/35/35 
f 34/34/34 33/31/33 35/35/35 
f 38/36/38 37/37/37 36/38/36 
f 37/37/37 39/39/39 36/38/36 
f 42/40/42 41/41/41 40/42/40 
f 41/41/41 43/43/43 40/42/40 
f 46/44/46 45/45/45 44/46/44 
f 45/45/45 47/47/47 44/46/44 
f 36/38/36 41/41/41 42/40/42 
f 36/38/36 42/40/42 38/36/38 
f 37/37/37 45/45/45 46/44/46 
f 37/37/37 46/44/46 39/39/39 
f 48/48/48 40/42/40 43/43/43 
f 48/48/48 44/46/44 47/47/47 
f 51/49/51 50/50/50 49/51/49 
f 51/49/51 52/52/52 50/50/50 
f 55/53/55 54/54/54 53/55/53 
f 55/53/55 56/56/56 54/54/54 
f 59/57/59 58/58/58 57/59/57 
f 59/57/59 60/60/60 58/58/58 
f 53/55/53 54/54/54 51/49/51 
f 49/51/49 53/55/53 51/49/51 
f 57/59/57 58/58/58 50/50/50 
f 52/52/52 57/59/57 50/50/50 
f 56/56/56 55/53/55 61/61/61 
f 60/60/60 59/57/59 61/61/61 
f 64/62/64 63/63/63 62/64/62 
f 63/63/63 65/65/65 62/64/62 
f 68/66/68 67/67/67 66/68/66 
f 67/67/67 69/69/69 66/68/66 
f 72/70/72 71/71/71 70/72/70 
f 71/71/71 73/73/73 70/72/70 
f 62/64/62 67/67/67 68/66/68 
f 62/64/62 68/66/68 64/62/64 
f 63/63/63 71/71/71 72/70/72 
f 63/63/63 72/70/72 65/65/65 
f 74/74/74 66/68/66 69/69/69 
f 74/74/74 70/72/70 73/73/73 
f 77/75/77 76/76/76 75/77/75 
f 77/75/77 78/78/78 76/76/76 
f 81/79/81 80/80/80 79/81/79 
f 81/79/81 82/82/82 80/80/80 
f 85/83/85 84/84/84 83/85/83 
f 85/83/85 86/86/86 84/84/84 
f 79/81/79 80/80/80 77/75/77 
f 75/77/75 79/81/79 77/75/77 
f 83/85/83 84/84/84 76/76/76 
f 78/78/78 83/85/83 76/76/76 
f 82/82/82 81/79/81 87/87/87 
f 86/86/86 85/83/85 87/87/87 
f 90/88/90 89/89/89 88/90/88 
f 89/89/89 91/91/91 88/90/88 
f 94/92/94 93/93/93 92/94/92 
f 93/93/93 95/95/95 92/94/92 
f 98/96/98 97/97/97 96/98/96 
f 97/97/97 99/99/99 96/98/96 
f 88/90/88 93/93/93 94/92/94 
f 88/90/88 94/92/94 90/88/90 
f 89/89/89 97/97/97 98/96/98 
f 89/89/89 98/96/98 91/91/91 
f 100/100/100 92/94/92 95/95/95 
f 100/100/100 96/98/96 99/99/99 
f 103/101/103 102/102/102 101/103/101 
f 103/101/103 104/104/104 102/102/102 
f 107/105/107 106/106/106 105/107/105 
f 107/105/107 108/108/108 106/106/106 
f 111/109/111 110/110/110 109/111/109 
f 111/109/111 112/112/112 110/110/110 
f 105/107/105 106/106/106 103/101/103 
f 101/103/101 105/107/105 103/101/103 
f 109/111/109 110/110/110 102/102/102 
f 104/104/104 109/111/109 102/102/102 
f 108/108/108 107/105/107 113/113/113 
f 112/112/112 111/109/111 113/113/113 
f 14/16/14 21/21/21 16/14/16 
f 21/21/21 19/19/19 16/14/16 
f 12/10/12 16/14/16 19/19/19 
f 12/10/12 19/19/19 11/11/11 
f 22/22/22 21/21/21 14/16/14 
f 27/29/27 34/34/34 29/27/29 
f 27/29/27 32/32/32 34/34/34 
f 32/32/32 27/29/27 23/25/23 
f 24/24/24 32/32/32 23/25/23 
f 29/27/29 34/34/34 35/35/35 
f 40/42/40 47/47/47 42/40/42 
f 47/47/47 45/45/45 42/40/42 
f 38/36/38 42/40/42 45/45/45 
f 38/36/38 45/45/45 37/37/37 
f 48/48/48 47/47/47 40/42/40 
f 53/55/53 60/60/60 55/53/55 
f 53/55/53 58/58/58 60/60/60 
f 58/58/58 53/55/53 49/51/49 
f 50/50/50 58/58/58 49/51/49 
f 55/53/55 60/60/60 61/61/61 
f 66/68/66 73/73/73 68/66/68 
f 73/73/73 71/71/71 68/66/68 
f 64/62/64 68/66/68 71/71/71 
f 64/62/64 71/71/71 63/63/63 
f 74/74/74 73/73/73 66/68/66 
f 79/81/79 86/86/86 81/79/81 
f 79/81/79 84/84/84 86/86/86 
f 84/84/84 79/81/79 75/77/75 
f 76/76/76 84/84/84 75/77/75 
f 81/79/81 86/86/86 87/87/87 
f 92/94/92 99/99/99 94/92/94 
f 99/99/99 97/97/97 94/92/94 
f 90/88/90 94/92/94 97/97/97 
f 90/88/90 97/97/97 89/89/89 
f 100/100/100 99/99/99 92/94/92 
f 105/107/105 112/112/112 107/105/107 
f 105/107/105 110/110/110 112/112/112 
f 110/110/110 105/107/105 101/103/101 
f 102/102/102 110/110/110 101/103/101 
f 107/105/107 112/112/112 113/113/113 
f 15/15/15 20/18/20 17/17/17 
f 20/18/20 18/20/18 17/17/17 
f 13/13/13 20/18/20 15/15/15 
f 13/13/13 15/15/15 10/12/10 
f 22/22/22 17/17/17 18/20/18 
f 30/30/30 31/33/31 28/28/28 
f 30/30/30 33/31/33 31/33/31 
f 28/28/28 31/33/31 26/26/26 
f 25/23/25 28/28/28 26/26/26 
f 33/31/33 30/30/30 35/35/35 
f 41/41/41 46/44/46 43/43/43 
f 46/44/46 44/46/44 43/43/43 
f 39/39/39 46/44/46 41/41/41 
f 39/39/39 41/41/41 36/38/36 
f 48/48/48 43/43/43 44/46/44 
f 56/56/56 57/59/57 54/54/54 
f 56/56/56 59/57/59 57/59/57 
f 54/54/54 57/59/57 52/52/52 
f 51/49/51 54/54/54 52/52/52 
f 59/57/59 56/56/56 61/61/61 
f 67/67/67 72/70/72 69/69/69 
f 72/70/72 70/72/70 69/69/69 
f 65/65/65 72/70/72 67/67/67 
f 65/65/65 67/67/67 62/64/62 
f 74/74/74 69/69/69 70/72/70 
f 82/82/82 83/85/83 80/80/80 
f 82/82/82 85/83/85 83/85/83 
f 80/80/80 83/85/83 78/78/78 
f 77/75/77 80/80/80 78/78/78 
f 85/83/85 82/82/82 87/87/87 
f 93/93/93 98/96/98 95/95/95 
f 98/96/98 96/98/96 95/95/95 
f 91/91/91 98/96/98 93/93/93 
f 91/91/91 93/93/93 88/90/88 
f 100/100/100 95/95/95 96/98/96 
f 108/108/108 109/111/109 106/106/106 
f 108/108/108 111/109/111 109/111/109 
f 106/106/106 109/111/109 104/104/104 
f 103/101/103 106/106/106 104/104/104 
f 111/109/111 108/108/108 113/113/113 
f 3/1/3 1/3/1 114/114/114 
f 1/3/1 4/4/4 114/114/114 
f 4/4/4 5/5/5 114/114/114 
f 5/5/5 6/6/6 114/114/114 
f 6/6/6 7/7/7 114/114/114 
f 7/7/7 8/8/8 114/114/114 
f 8/8/8 9/9/9 114/114/114 
f 9/9/9 3/1/3 114/114/114 
