mtllib model.mtl
o model.obj
v 0.215172 9.594480 5.878040
v 0.215172 9.389270 6.076080
v 0.215172 5.291603 6.145790
v 0.215172 9.671580 5.597980
v 0.215172 9.131560 6.145790
v 0.157471 -1.191358 -5.336930
v 0.157471 -1.191358 -5.882420
v 0.157471 -0.538667 -5.336930
v 0.157471 -0.538667 -5.882420
v -0.157471 -1.191358 -5.336930
v -0.157471 -1.191358 -5.882420
v -0.157471 -0.538667 -5.336930
v -0.157471 -0.538667 -5.882420
v -0.166573 9.615670 5.307800
v 0.339654 5.213803 6.145790
v 0.339654 4.547014 6.145790
v 0.119118 9.459750 5.361580
v 0.119118 9.771590 5.254010
v 0.190461 4.283220 -5.539960
v 0.190461 -0.460866 -5.609670
v 0.190461 4.605990 -5.118700
v 0.190461 4.488140 -5.330210
v 0.190461 4.025510 -5.609670
v -0.190461 4.283220 -5.539960
v -0.190461 -0.460866 -5.609670
v -0.190461 4.605990 -5.118700
v -0.190461 4.488140 -5.330210
v -0.190461 4.025510 -5.609670
v 0.314943 -1.191358 -5.609670
v 0.314943 -0.538667 -5.609670
v -0.314943 -1.191358 -5.609670
v -0.314943 -0.538667 -5.609670
v -0.132760 5.213803 6.418540
v -0.132760 5.213803 5.873050
v -0.132760 4.547014 6.418540
v -0.132760 4.547014 5.873050
v -0.070519 9.506630 5.597980
v -0.070519 9.460020 6.225070
v -0.070519 9.836520 5.597980
v -0.070519 9.732050 5.969040
v -0.070519 9.456910 5.787040
v -0.070519 5.291603 5.980850
v -0.070519 5.291603 6.310740
v -0.070519 9.318510 5.927080
v -0.070519 9.131560 5.980850
v -0.070519 9.131560 6.310740
v -0.290232 5.213803 6.145790
v -0.290232 4.547014 6.145790
v 0.214349 9.615670 5.307800
v -0.165750 9.594480 5.878040
v -0.165750 9.389270 6.076080
v -0.165750 5.291603 6.145790
v -0.165750 9.671580 5.597980
v -0.165750 9.131560 6.145790
v 0.119941 9.506630 5.597980
v 0.119941 9.460020 6.225070
v 0.119941 9.836520 5.597980
v 0.119941 9.732050 5.969040
v 0.119941 9.456910 5.787040
v 0.119941 5.291603 5.980850
v 0.119941 5.291603 6.310740
v 0.119941 9.318510 5.927080
v 0.119941 9.131560 5.980850
v 0.119941 9.131560 6.310740
v -0.071342 9.459750 5.361580
v -0.071342 9.771590 5.254010
v 0.182182 5.213803 6.418540
v 0.182182 5.213803 5.873050
v 0.182182 4.547014 6.418540
v 0.182182 4.547014 5.873050
v 0.095230 4.627080 -5.419110
v 0.095230 -0.460866 -5.444730
v 0.095230 -0.460866 -5.774620
v 0.095230 4.212460 -5.390960
v 0.095230 4.453680 -5.057300
v 0.095230 4.349210 -5.241300
v 0.095230 4.353970 -5.688950
v 0.095230 4.758300 -5.180100
v 0.095230 4.025510 -5.444730
v 0.095230 4.025510 -5.774620
v -0.095230 4.627080 -5.419110
v -0.095230 -0.460866 -5.444730
v -0.095230 -0.460866 -5.774620
v -0.095230 4.212460 -5.390960
v -0.095230 4.453680 -5.057300
v -0.095230 4.349210 -5.241300
v -0.095230 4.353970 -5.688950
v -0.095230 4.758300 -5.180100
v -0.095230 4.025510 -5.444730
v -0.095230 4.025510 -5.774620
vn 0.999986 -0.004077 0.003472
vn 0.999982 -0.005637 0.002054
vn 0.861016 0.508578 -0.000010
vn 0.999999 -0.000891 0.000806
vn 0.999997 -0.002414 0.000155
vn 0.499994 0.000000 0.866029
vn 0.500000 0.000000 -0.866025
vn 0.430504 0.508568 0.745671
vn 0.430509 0.508572 -0.745665
vn -0.499994 0.000000 0.866029
vn -0.500000 0.000000 -0.866025
vn -0.430504 0.508569 0.745670
vn -0.430512 0.508568 -0.745666
vn -0.999996 0.000498 0.002804
vn 0.861015 0.508579 -0.000008
vn 1.000000 0.000000 -0.000008
vn 0.500708 -0.821652 0.272359
vn 0.500727 0.821919 -0.271518
vn 0.999975 -0.005024 -0.004963
vn 0.861018 0.508575 0.000012
vn 1.000000 0.000075 0.000127
vn 0.999993 -0.002387 -0.002959
vn 0.999997 -0.002154 -0.000913
vn -0.999993 -0.002776 -0.002670
vn -0.861020 0.508572 0.000009
vn -0.999998 0.000771 0.001792
vn -0.999998 -0.001171 -0.001302
vn -0.999999 -0.001231 -0.000518
vn 1.000000 0.000000 0.000008
vn 0.861017 0.508576 0.000009
vn -1.000000 0.000000 0.000008
vn -0.861019 0.508573 0.000007
vn -0.430509 0.508572 0.745665
vn -0.430502 0.508572 -0.745669
vn -0.500000 0.000000 0.866025
vn -0.499993 0.000000 -0.866029
vn -0.503216 -0.863670 -0.029109
vn -0.504003 0.418359 0.755617
vn -0.503752 0.862953 0.039330
vn -0.504524 0.738276 0.447665
vn -0.503204 -0.748030 -0.432709
vn -0.430503 0.508572 -0.745669
vn -0.430512 0.508573 0.745663
vn -0.503803 -0.436328 -0.745521
vn -0.500193 -0.119069 -0.857688
vn -0.499942 0.110636 0.858963
vn -0.861016 0.508577 -0.000006
vn -1.000000 0.000000 -0.000008
vn 0.999998 -0.000433 -0.001713
vn -0.999996 -0.002122 0.001779
vn -0.999995 -0.003058 0.001070
vn -0.861017 0.508576 -0.000009
vn -0.999996 -0.000339 0.002648
vn -0.999999 -0.001368 0.000078
vn 0.502690 -0.864004 -0.028278
vn 0.503432 0.421335 0.754342
vn 0.503442 0.863251 0.036659
vn 0.503823 0.739991 0.445618
vn 0.501795 -0.751263 -0.428725
vn 0.430503 0.508572 -0.745669
vn 0.430510 0.508575 0.745662
vn 0.502680 -0.441777 -0.743065
vn 0.499902 -0.121481 -0.857520
vn 0.499787 0.112003 0.858876
vn -0.500584 -0.821163 0.274056
vn -0.501042 0.822627 -0.268778
vn 0.430507 0.508575 0.745665
vn 0.430503 0.508571 -0.745669
vn 0.500000 0.000000 0.866025
vn 0.499993 0.000000 -0.866029
vn 0.500585 0.691781 -0.520436
vn 0.430505 0.508568 0.745670
vn 0.430512 0.508573 -0.745663
vn 0.511780 -0.452922 0.730029
vn 0.498386 -0.768350 0.401560
vn 0.499717 -0.700726 0.509182
vn 0.509701 0.428918 -0.745811
vn 0.498357 0.770334 -0.397777
vn 0.502428 -0.120877 0.856128
vn 0.501611 0.111589 -0.857866
vn -0.500502 0.690768 -0.521859
vn -0.430504 0.508569 0.745670
vn -0.430515 0.508569 -0.745664
vn -0.510626 -0.447292 0.734296
vn -0.498411 -0.768405 0.401423
vn -0.499541 -0.698570 0.512307
vn -0.509017 0.425818 -0.748051
vn -0.498473 0.771163 -0.396021
vn -0.502032 -0.118659 0.856670
vn -0.501376 0.110324 -0.858167
vt 0.678735 0.016496
vt 0.586739 0.015824
vt 0.595394 0.007450
vt 0.688061 0.008027
vt 0.775056 0.017297
vt 0.783314 0.008671
vt 0.310323 0.014205
vt 0.209937 0.013931
vt 0.216138 0.004950
vt 0.315303 0.005434
vt 0.404261 0.014627
vt 0.411196 0.006024
vt 0.495831 0.015208
vt 0.504068 0.006798
vt 0.665416 0.020248
vt 0.576139 0.019717
vt 0.754647 0.020779
vt 0.308237 0.018138
vt 0.219014 0.017615
vt 0.397529 0.018661
vt 0.486835 0.019188
vt 0.541841 0.167838
vt 0.452501 0.167288
vt 0.631281 0.168365
vt 0.185190 0.165706
vt 0.095795 0.165197
vt 0.274343 0.166208
vt 0.363370 0.166736
vt 0.532247 0.178496
vt 0.430246 0.177898
vt 0.651515 0.177840
vt 0.185004 0.176741
vt 0.077598 0.176646
vt 0.269302 0.176740
vt 0.347383 0.177197
vt 0.533685 0.189874
vt 0.423669 0.189679
vt 0.668292 0.189249
vt 0.170732 0.188829
vt 0.055830 0.188472
vt 0.258114 0.188913
vt 0.338035 0.189307
vt 0.543542 0.201909
vt 0.428211 0.202337
vt 0.679096 0.201638
vt 0.147245 0.201906
vt 0.024623 0.201131
vt 0.244267 0.202446
vt 0.333695 0.202661
vt 0.451797 0.216008
vt 0.340056 0.215300
vt 0.228039 0.215542
vt 0.116839 0.216711
vt 0.005569 0.217861
vt 0.675661 0.216531
vt 0.563562 0.216735
vt 0.891290 0.991492
vt 0.791772 0.992171
vt 0.781514 0.983281
vt 0.879550 0.982400
vt 0.994431 0.990667
vt 0.983856 0.981327
vt 0.500767 0.994329
vt 0.399984 0.995049
vt 0.390748 0.985923
vt 0.492895 0.985361
vt 0.598666 0.993560
vt 0.590130 0.984733
vt 0.694937 0.992849
vt 0.685717 0.984087
vt 0.780617 0.979067
vt 0.874530 0.978335
vt 0.968382 0.977605
vt 0.404951 0.981971
vt 0.498822 0.981248
vt 0.592745 0.980523
vt 0.686680 0.979796
vt 0.610025 0.823826
vt 0.704033 0.823075
vt 0.798116 0.822348
vt 0.234731 0.826722
vt 0.328752 0.826010
vt 0.422583 0.825306
vt 0.516267 0.824580
vt 0.591021 0.812593
vt 0.698497 0.811964
vt 0.819038 0.812738
vt 0.217612 0.814954
vt 0.328149 0.814204
vt 0.417943 0.813880
vt 0.502178 0.813436
vt 0.598329 0.799639
vt 0.711464 0.800490
vt 0.836971 0.800977
vt 0.188334 0.803109
vt 0.304173 0.800870
vt 0.402798 0.799272
vt 0.498060 0.798958
vt 0.612509 0.788223
vt 0.724188 0.788538
vt 0.836280 0.788336
vt 0.166027 0.789665
vt 0.277429 0.788927
vt 0.388790 0.788169
vt 0.500841 0.787927
g base
usemtl mat_base
f 68/1/68 15/2/15 16/3/16 70/4/70 
f 34/5/34 68/1/68 70/4/70 36/6/36 
f 47/7/47 34/8/34 36/9/36 48/10/48 
f 33/11/33 47/7/47 48/10/48 35/12/35 
f 67/13/67 33/11/33 35/12/35 69/14/69 
f 15/2/15 67/13/67 69/14/69 16/3/16 
f 15/2/15 68/1/68 60/15/60 3/16/3 
f 68/1/68 34/5/34 42/17/42 60/15/60 
f 34/8/34 47/7/47 52/18/52 42/19/42 
f 47/7/47 33/11/33 43/20/43 52/18/52 
f 33/11/33 67/13/67 61/21/61 43/20/43 
f 67/13/67 15/2/15 3/16/3 61/21/61 
f 63/22/63 5/23/5 3/16/3 60/15/60 
f 45/24/45 63/22/63 60/15/60 42/17/42 
f 54/25/54 45/26/45 42/19/42 52/18/52 
f 46/27/46 54/25/54 52/18/52 43/20/43 
f 64/28/64 46/27/46 43/20/43 61/21/61 
f 5/23/5 64/28/64 61/21/61 3/16/3 
f 5/23/5 63/22/63 62/29/62 2/30/2 
f 63/22/63 45/24/45 44/31/44 62/29/62 
f 45/26/45 54/25/54 51/32/51 44/33/44 
f 54/25/54 46/27/46 38/34/38 51/32/51 
f 46/27/46 64/28/64 56/35/56 38/34/38 
f 64/28/64 5/23/5 2/30/2 56/35/56 
f 2/30/2 62/29/62 59/36/59 1/37/1 
f 62/29/62 44/31/44 41/38/41 59/36/59 
f 44/33/44 51/32/51 50/39/50 41/40/41 
f 51/32/51 38/34/38 40/41/40 50/39/50 
f 38/34/38 56/35/56 58/42/58 40/41/40 
f 56/35/56 2/30/2 1/37/1 58/42/58 
f 1/37/1 59/36/59 55/43/55 4/44/4 
f 59/36/59 41/38/41 37/45/37 55/43/55 
f 41/40/41 50/39/50 53/46/53 37/47/37 
f 50/39/50 40/41/40 39/48/39 53/46/53 
f 40/41/40 58/42/58 57/49/57 39/48/39 
f 58/42/58 1/37/1 4/44/4 57/49/57 
f 57/49/57 4/44/4 49/50/49 18/51/18 
f 39/48/39 57/49/57 18/51/18 66/52/66 
f 53/46/53 39/48/39 66/52/66 14/53/14 
f 37/47/37 53/46/53 14/53/14 65/54/65 
f 55/43/55 37/45/37 65/55/65 17/56/17 
f 4/44/4 55/43/55 17/56/17 49/50/49 
f 6/57/6 29/58/29 30/59/30 8/60/8 
f 10/61/10 6/57/6 8/60/8 12/62/12 
f 31/63/31 10/64/10 12/65/12 32/66/32 
f 11/67/11 31/63/31 32/66/32 13/68/13 
f 7/69/7 11/67/11 13/68/13 9/70/9 
f 29/58/29 7/69/7 9/70/9 30/59/30 
f 20/71/20 72/72/72 8/60/8 30/59/30 
f 72/72/72 82/73/82 12/62/12 8/60/8 
f 82/74/82 25/75/25 32/66/32 12/65/12 
f 25/75/25 83/76/83 13/68/13 32/66/32 
f 83/76/83 73/77/73 9/70/9 13/68/13 
f 73/77/73 20/71/20 30/59/30 9/70/9 
f 23/78/23 79/79/79 72/72/72 20/71/20 
f 79/79/79 89/80/89 82/73/82 72/72/72 
f 89/81/89 28/82/28 25/75/25 82/74/82 
f 28/82/28 90/83/90 83/76/83 25/75/25 
f 90/83/90 80/84/80 73/77/73 83/76/83 
f 80/84/80 23/78/23 20/71/20 73/77/73 
f 19/85/19 74/86/74 79/79/79 23/78/23 
f 74/86/74 84/87/84 89/80/89 79/79/79 
f 84/88/84 24/89/24 28/82/28 89/81/89 
f 24/89/24 87/90/87 90/83/90 28/82/28 
f 87/90/87 77/91/77 80/84/80 90/83/90 
f 77/91/77 19/85/19 23/78/23 80/84/80 
f 22/92/22 76/93/76 74/86/74 19/85/19 
f 76/93/76 86/94/86 84/87/84 74/86/74 
f 86/95/86 27/96/27 24/89/24 84/88/84 
f 27/96/27 81/97/81 87/90/87 24/89/24 
f 81/97/81 71/98/71 77/91/77 87/90/87 
f 71/98/71 22/92/22 19/85/19 77/91/77 
f 21/99/21 75/100/75 76/93/76 22/92/22 
f 75/100/75 85/101/85 86/94/86 76/93/76 
f 85/102/85 26/103/26 27/96/27 86/95/86 
f 26/103/26 88/104/88 81/97/81 27/96/27 
f 88/104/88 78/105/78 71/98/71 81/97/81 
f 78/105/78 21/99/21 22/92/22 71/98/71 
f 49/50/49 21/99/21 78/105/78 18/51/18 
f 18/51/18 78/105/78 88/104/88 66/52/66 
f 66/52/66 88/104/88 26/103/26 14/53/14 
f 14/53/14 26/103/26 85/102/85 65/54/65 
f 65/55/65 85/101/85 75/100/75 17/56/17 
f 17/56/17 75/100/75 21/99/21 49/50/49 
